<svg width="64" height="65" viewBox="0 0 64 65" fill="none" xmlns="http://www.w3.org/2000/svg">
<path d="M19.5126 2.7001C17.4001 3.2626 15.7501 4.9501 15.1876 7.0876C15.0251 7.7126 15.0001 11.0126 15.0001 32.5001C15.0001 59.7001 14.9501 57.8501 15.7626 59.3876C16.5376 60.8251 18.2251 62.0626 19.8626 62.3751C20.7751 62.5501 43.2251 62.5501 44.1376 62.3751C46.4376 61.9376 48.4501 59.9251 48.8751 57.6376C49.0501 56.7001 49.0501 8.2751 48.8751 7.3626C48.4501 5.1501 46.6626 3.2751 44.4376 2.6876C43.3626 2.4126 20.5501 2.4126 19.5126 2.7001ZM44.6251 4.8501C45.5251 5.2876 46.0501 5.7876 46.5126 6.6501L46.9376 7.4376L46.9751 28.9626L47.0001 50.5001H33.0001H19.0001V51.5001V52.5001H33.0126H47.0251L46.9751 55.0251C46.9376 57.4876 46.9251 57.5751 46.6001 58.2001C46.1001 59.1501 45.7251 59.5376 44.8501 60.0126L44.0626 60.4376H32.0001H19.9376L19.1501 60.0126C18.2876 59.5501 17.7876 59.0251 17.3501 58.1251L17.0626 57.5626L17.0251 35.0251L17.0001 12.5001H31.0001H45.0001V11.5001V10.5001H30.9876H16.9751L17.0251 8.9626C17.0751 7.6876 17.1251 7.3376 17.3876 6.8126C17.9001 5.7376 18.9251 4.8876 20.0626 4.6126C20.2751 4.5626 25.7501 4.5376 32.2501 4.5376L44.0626 4.5626L44.6251 4.8501Z" fill="#31A0EB"/>
<path d="M29 7.5V8.5H32H35V7.5V6.5H32H29V7.5Z" fill="#31A0EB"/>
<path d="M37 7.5V8.5H38H39V7.5V6.5H38H37V7.5Z" fill="#31A0EB"/>
<path d="M30.9376 22.9501C29.5001 25.4626 28.3001 27.5626 28.2751 27.6126C28.2376 27.7376 29.7376 28.6501 29.9001 28.6001C30.0251 28.5501 35.1126 19.8251 35.2126 19.4751C35.2626 19.3251 35.0501 19.1501 34.4626 18.8251C34.0251 18.5751 33.6376 18.3751 33.6126 18.3751C33.5876 18.3751 32.3876 20.4376 30.9376 22.9501Z" fill="#31A0EB"/>
<path d="M23.875 21.1875L21.5625 23.5L23.9125 25.8375L26.25 28.1875L26.9625 27.4625L27.6875 26.75L26.0625 25.125L24.4375 23.5L26.0375 21.9C26.9125 21.025 27.625 20.25 27.625 20.175C27.625 20.025 26.475 18.875 26.3125 18.875C26.2375 18.875 25.15 19.9125 23.875 21.1875Z" fill="#31A0EB"/>
<path d="M36.9625 19.475C36.6375 19.8 36.375 20.125 36.375 20.1875C36.375 20.25 37.0875 21.025 37.9625 21.9L39.5625 23.5L37.9375 25.125L36.3125 26.75L37.0375 27.4625L37.75 28.1875L40.0875 25.8375L42.4375 23.5L40.125 21.1875C38.85 19.9125 37.75 18.875 37.6875 18.875C37.6125 18.875 37.2875 19.15 36.9625 19.475Z" fill="#31A0EB"/>
<path d="M21 34.5V35.5H23H25V34.5V33.5H23H21V34.5Z" fill="#31A0EB"/>
<path d="M27 34.5V35.5H35H43V34.5V33.5H35H27V34.5Z" fill="#31A0EB"/>
<path d="M21 38.5V39.5H32H43V38.5V37.5H32H21V38.5Z" fill="#31A0EB"/>
<path d="M21 42.5V43.5H32H43V42.5V41.5H32H21V42.5Z" fill="#31A0EB"/>
<path d="M31.0003 53.6625C30.3878 53.8625 29.3378 54.9375 29.1503 55.575C28.8003 56.75 29.0503 57.6875 29.9378 58.5625C30.5753 59.2125 31.2128 59.5 32.0003 59.5C32.7878 59.5 33.4253 59.2125 34.0628 58.5625C35.2878 57.35 35.3253 55.7875 34.1628 54.5C33.3503 53.6 32.1878 53.2875 31.0003 53.6625ZM32.6878 55.8125C33.3128 56.425 32.8753 57.5 32.0003 57.5C31.7628 57.5 31.5003 57.3875 31.3128 57.1875C31.1128 57 31.0003 56.7375 31.0003 56.5C31.0003 56.2625 31.1128 56 31.3128 55.8125C31.5003 55.6125 31.7628 55.5 32.0003 55.5C32.2378 55.5 32.5003 55.6125 32.6878 55.8125Z" fill="#31A0EB"/>
</svg>
