<svg width="64" height="65" viewBox="0 0 64 65" fill="none" xmlns="http://www.w3.org/2000/svg">
<path d="M5.825 2.63751C5.05 2.82501 3.9125 3.48751 3.3625 4.08751C3.0875 4.38751 2.675 5.01251 2.4625 5.47501L2.0625 6.31251V26.5125V46.7L2.525 47.65C3.0875 48.7875 3.8125 49.4875 4.975 50.0375L5.8125 50.4375L15.4125 50.475L25 50.5125V53.5V56.5H21.8C19.65 56.5 18.425 56.55 18.075 56.65C17.3875 56.85 16.35 57.8875 16.15 58.575C16.0625 58.8625 16 59.725 16 60.4875C16 61.8 16.0125 61.9 16.3125 62.1875L16.6125 62.5H32H47.3875L47.6875 62.1875C47.9875 61.9 48 61.8 48 60.4875C48 59.725 47.9375 58.8625 47.85 58.575C47.65 57.8875 46.6125 56.85 45.925 56.65C45.575 56.55 44.35 56.5 42.2 56.5H39V53.5V50.5L41.975 50.5125H44.9375L50.975 56.05C54.2875 59.1 57.2125 61.7 57.475 61.825C57.7875 61.9875 58.2125 62.0625 58.8125 62.0625C59.55 62.0625 59.7875 62 60.2875 61.7125C61.725 60.8625 62.2625 59.1125 61.5125 57.6625C61.3875 57.4 59.9125 55.7 58.2375 53.875L55.2 50.5625L56.725 50.4875C58.15 50.425 58.3 50.3875 59.1625 49.9625C60.2875 49.4125 61 48.675 61.5375 47.525L61.9375 46.6875V26.5V6.31251L61.5375 5.47501C60.9875 4.31251 60.2875 3.58751 59.15 3.02501L58.2 2.56251L32.2625 2.53751C16.875 2.53751 6.1125 2.57501 5.825 2.63751ZM57.925 4.65001C58.6125 4.85001 59.65 5.88751 59.85 6.57501C59.9625 6.97501 60 11.2625 60 24.8V42.5H53.95H47.8875L44.55 39.125C42.7125 37.2625 41.075 35.7125 40.925 35.675C40.7125 35.625 40.625 35.4625 40.5125 34.9125C40.3375 34.0125 39.7125 32.85 39.1125 32.3125C38.1875 31.475 36.225 30.6875 33.25 29.9375C30.0125 29.125 29.5625 29.1 29.1625 29.7C28.975 29.9875 28.975 30.125 29.1125 30.95C29.3375 32.2875 30.0375 35 30.5 36.3125C31.025 37.775 31.525 38.775 32.0625 39.3625C32.6 39.9625 33.775 40.5875 34.675 40.775C35.125 40.8625 35.375 40.975 35.375 41.0875C35.375 41.1875 35.6375 41.5375 35.95 41.875L36.5375 42.5H20.2625H4V24.8C4 11.2625 4.0375 6.97501 4.15 6.57501C4.3375 5.93751 5.3875 4.86251 6 4.66251C6.6625 4.45001 57.2125 4.45001 57.925 4.65001ZM32.9375 31.925C34.4 32.3 36.0625 32.85 36.9125 33.25C38.075 33.8 38.7375 34.9875 38.5875 36.25C38.5 36.9875 38.2625 37.4625 37.7375 37.9875C37.2 38.525 36.7125 38.7625 35.95 38.8375C34.4375 38.9875 33.3875 38.25 32.7375 36.5875C32.275 35.375 31.9875 34.4375 31.625 33C31.4875 32.4125 31.3375 31.8375 31.3 31.7125C31.2375 31.525 31.275 31.4875 31.4625 31.55C31.5875 31.5875 32.25 31.75 32.9375 31.925ZM43.4 43.65L42 45.0625L39.875 42.9375L37.75 40.8125L39.15 39.4125L40.5625 38L42.6875 40.125L44.8125 42.25L43.4 43.65ZM52.8125 50.875C56.3875 54.7875 59.4375 58.1625 59.6 58.3875C59.975 58.925 59.95 59.325 59.5125 59.7625C58.9625 60.3 58.5 60.25 57.775 59.5875C56.725 58.625 43.5625 46.5875 43.5125 46.5375C43.4375 46.4875 46.15 43.75 46.25 43.7625C46.2875 43.7625 49.2375 46.9625 52.8125 50.875ZM40.6125 46.5L42.65 48.5H24.625C10.825 48.5 6.475 48.4625 6.075 48.35C5.3875 48.15 4.35 47.1125 4.15 46.425C4.0625 46.1375 4 45.5875 4 45.2V44.5H21.2875L38.5625 44.5125L40.6125 46.5ZM60 45.2C60 46.2875 59.775 46.8625 59.0625 47.5625C58.225 48.4125 57.85 48.5 55.3625 48.5H53.3125L51.625 46.6625C50.7 45.6625 49.8875 44.7625 49.8375 44.6625C49.75 44.525 50.6375 44.5 54.875 44.5H60V45.2ZM37 53.5V56.5H32H27V53.5V50.5H32H37V53.5ZM45.6875 58.8125C45.95 59.0625 46 59.2375 46 59.8125V60.5H32H18V59.8125C18 59.2375 18.05 59.0625 18.3125 58.8125L18.6125 58.5H32H45.3875L45.6875 58.8125Z" fill="#31A0EB"/>
<path d="M6.3125 8.8125C6.1125 9 6 9.2625 6 9.5C6 9.7375 6.1125 10 6.3125 10.1875C6.575 10.4625 6.725 10.5 7.5 10.5C8.275 10.5 8.425 10.4625 8.6875 10.1875C9.1 9.7875 9.1 9.2125 8.6875 8.8125C8.425 8.5375 8.275 8.5 7.5 8.5C6.725 8.5 6.575 8.5375 6.3125 8.8125Z" fill="#31A0EB"/>
<path d="M10.3125 8.8125C10.1125 9 10 9.2625 10 9.5C10 9.7375 10.1125 10 10.3125 10.1875C10.575 10.4625 10.725 10.5 11.5 10.5C12.275 10.5 12.425 10.4625 12.6875 10.1875C13.1 9.7875 13.1 9.2125 12.6875 8.8125C12.425 8.5375 12.275 8.5 11.5 8.5C10.725 8.5 10.575 8.5375 10.3125 8.8125Z" fill="#31A0EB"/>
<path d="M14.3125 8.8125C14.1125 9 14 9.2625 14 9.5C14 9.7375 14.1125 10 14.3125 10.1875C14.575 10.4625 14.725 10.5 15.5 10.5C16.275 10.5 16.425 10.4625 16.6875 10.1875C16.8875 10 17 9.7375 17 9.5C17 9.2625 16.8875 9 16.6875 8.8125C16.425 8.5375 16.275 8.5 15.5 8.5C14.725 8.5 14.575 8.5375 14.3125 8.8125Z" fill="#31A0EB"/>
<path d="M18.3125 8.8125C18.1125 9 18 9.2625 18 9.5C18 9.7375 18.1125 10 18.3125 10.1875C18.575 10.4625 18.725 10.5 19.5 10.5C20.275 10.5 20.425 10.4625 20.6875 10.1875C20.8875 10 21 9.7375 21 9.5C21 9.2625 20.8875 9 20.6875 8.8125C20.425 8.5375 20.275 8.5 19.5 8.5C18.725 8.5 18.575 8.5375 18.3125 8.8125Z" fill="#31A0EB"/>
<path d="M22.3125 8.8125C22.1125 9 22 9.2625 22 9.5C22 9.7375 22.1125 10 22.3125 10.1875C22.575 10.4625 22.725 10.5 23.5 10.5C24.275 10.5 24.425 10.4625 24.6875 10.1875C24.8875 10 25 9.7375 25 9.5C25 9.2625 24.8875 9 24.6875 8.8125C24.425 8.5375 24.275 8.5 23.5 8.5C22.725 8.5 22.575 8.5375 22.3125 8.8125Z" fill="#31A0EB"/>
<path d="M26.3125 8.8125C26.1125 9 26 9.2625 26 9.5C26 9.7375 26.1125 10 26.3125 10.1875C26.575 10.4625 26.725 10.5 27.5 10.5C28.275 10.5 28.425 10.4625 28.6875 10.1875C28.8875 10 29 9.7375 29 9.5C29 9.2625 28.8875 9 28.6875 8.8125C28.425 8.5375 28.275 8.5 27.5 8.5C26.725 8.5 26.575 8.5375 26.3125 8.8125Z" fill="#31A0EB"/>
<path d="M30.3125 8.8125C30.0375 9.075 30 9.225 30 10C30 10.775 30.0375 10.925 30.3125 11.1875C30.5 11.3875 30.7625 11.5 31 11.5C31.2375 11.5 31.5 11.3875 31.6875 11.1875C31.9625 10.925 32 10.775 32 10C32 9.225 31.9625 9.075 31.6875 8.8125C31.5 8.6125 31.2375 8.5 31 8.5C30.7625 8.5 30.5 8.6125 30.3125 8.8125Z" fill="#31A0EB"/>
<path d="M36.3125 8.8125L36 9.1125V12.5V15.8875L36.3125 16.1875L36.6125 16.5H47H57.3875L57.6875 16.1875L58 15.8875V12.5V9.1125L57.6875 8.8125L57.3875 8.5H47H36.6125L36.3125 8.8125ZM56 12.5V14.5H47H38V12.5V10.5H47H56V12.5Z" fill="#31A0EB"/>
<path d="M6.3125 11.8125C6.0375 12.075 6 12.225 6 13C6 13.775 6.0375 13.925 6.3125 14.1875C6.5 14.3875 6.7625 14.5 7 14.5C7.2375 14.5 7.5 14.3875 7.6875 14.1875C7.9625 13.925 8 13.775 8 13C8 12.225 7.9625 12.075 7.6875 11.8125C7.5 11.6125 7.2375 11.5 7 11.5C6.7625 11.5 6.5 11.6125 6.3125 11.8125Z" fill="#31A0EB"/>
<path d="M10.3125 12.8125L10 13.1125V21.5V29.8875L10.3125 30.1875L10.6125 30.5H19H27.3875L27.6875 30.1875L28 29.8875V21.5V13.1125L27.6875 12.8125L27.3875 12.5H19H10.6125L10.3125 12.8125ZM26 21.5V28.5H19H12V21.5V14.5H19H26V21.5Z" fill="#31A0EB"/>
<path d="M30.3125 12.8125C30.0375 13.075 30 13.225 30 14C30 14.775 30.0375 14.925 30.3125 15.1875C30.5 15.3875 30.7625 15.5 31 15.5C31.2375 15.5 31.5 15.3875 31.6875 15.1875C31.9625 14.925 32 14.775 32 14C32 13.225 31.9625 13.075 31.6875 12.8125C31.5 12.6125 31.2375 12.5 31 12.5C30.7625 12.5 30.5 12.6125 30.3125 12.8125Z" fill="#31A0EB"/>
<path d="M6.3125 15.8125C6.0375 16.075 6 16.225 6 17C6 17.775 6.0375 17.925 6.3125 18.1875C6.5 18.3875 6.7625 18.5 7 18.5C7.2375 18.5 7.5 18.3875 7.6875 18.1875C7.9625 17.925 8 17.775 8 17C8 16.225 7.9625 16.075 7.6875 15.8125C7.5 15.6125 7.2375 15.5 7 15.5C6.7625 15.5 6.5 15.6125 6.3125 15.8125Z" fill="#31A0EB"/>
<path d="M30.3125 16.8125C30.0375 17.075 30 17.225 30 18C30 18.775 30.0375 18.925 30.3125 19.1875C30.5 19.3875 30.7625 19.5 31 19.5C31.2375 19.5 31.5 19.3875 31.6875 19.1875C31.9625 18.925 32 18.775 32 18C32 17.225 31.9625 17.075 31.6875 16.8125C31.5 16.6125 31.2375 16.5 31 16.5C30.7625 16.5 30.5 16.6125 30.3125 16.8125Z" fill="#31A0EB"/>
<path d="M36.3125 18.8125L36 19.1125V22.5V25.8875L36.3125 26.1875L36.6125 26.5H47H57.3875L57.6875 26.1875L58 25.8875V22.5V19.1125L57.6875 18.8125L57.3875 18.5H47H36.6125L36.3125 18.8125ZM56 22.5V24.5H47H38V22.5V20.5H47H56V22.5Z" fill="#31A0EB"/>
<path d="M6.3125 19.8125C6.0375 20.075 6 20.225 6 21C6 21.775 6.0375 21.925 6.3125 22.1875C6.5 22.3875 6.7625 22.5 7 22.5C7.2375 22.5 7.5 22.3875 7.6875 22.1875C7.9625 21.925 8 21.775 8 21C8 20.225 7.9625 20.075 7.6875 19.8125C7.5 19.6125 7.2375 19.5 7 19.5C6.7625 19.5 6.5 19.6125 6.3125 19.8125Z" fill="#31A0EB"/>
<path d="M30.3125 20.8125C30.0375 21.075 30 21.225 30 22C30 22.775 30.0375 22.925 30.3125 23.1875C30.5 23.3875 30.7625 23.5 31 23.5C31.2375 23.5 31.5 23.3875 31.6875 23.1875C31.9625 22.925 32 22.775 32 22C32 21.225 31.9625 21.075 31.6875 20.8125C31.5 20.6125 31.2375 20.5 31 20.5C30.7625 20.5 30.5 20.6125 30.3125 20.8125Z" fill="#31A0EB"/>
<path d="M6.3125 23.8125C6.0375 24.075 6 24.225 6 25C6 25.775 6.0375 25.925 6.3125 26.1875C6.5 26.3875 6.7625 26.5 7 26.5C7.2375 26.5 7.5 26.3875 7.6875 26.1875C7.9625 25.925 8 25.775 8 25C8 24.225 7.9625 24.075 7.6875 23.8125C7.5 23.6125 7.2375 23.5 7 23.5C6.7625 23.5 6.5 23.6125 6.3125 23.8125Z" fill="#31A0EB"/>
<path d="M30.3125 24.8125C30.0375 25.075 30 25.225 30 26C30 26.775 30.0375 26.925 30.3125 27.1875C30.5 27.3875 30.7625 27.5 31 27.5C31.2375 27.5 31.5 27.3875 31.6875 27.1875C31.9625 26.925 32 26.775 32 26C32 25.225 31.9625 25.075 31.6875 24.8125C31.5 24.6125 31.2375 24.5 31 24.5C30.7625 24.5 30.5 24.6125 30.3125 24.8125Z" fill="#31A0EB"/>
<path d="M6.3125 27.8125C6.0375 28.075 6 28.225 6 29C6 29.775 6.0375 29.925 6.3125 30.1875C6.5 30.3875 6.7625 30.5 7 30.5C7.2375 30.5 7.5 30.3875 7.6875 30.1875C7.9625 29.925 8 29.775 8 29C8 28.225 7.9625 28.075 7.6875 27.8125C7.5 27.6125 7.2375 27.5 7 27.5C6.7625 27.5 6.5 27.6125 6.3125 27.8125Z" fill="#31A0EB"/>
<path d="M38.3125 28.8125C38.1125 29 38 29.2625 38 29.5C38 29.7375 38.1125 30 38.3125 30.1875L38.6125 30.5H47.3125H56V32.5V34.5H50.3125H44.6125L44.3125 34.8125C43.9 35.2125 43.9 35.7875 44.3125 36.1875L44.6125 36.5H51H57.3875L57.6875 36.1875L58 35.8875V32.5V29.1125L57.6875 28.8125L57.3875 28.5H48H38.6125L38.3125 28.8125Z" fill="#31A0EB"/>
<path d="M6.3125 31.8125C6.0375 32.075 6 32.225 6 33C6 33.775 6.0375 33.925 6.3125 34.1875C6.5 34.3875 6.7625 34.5 7 34.5C7.2375 34.5 7.5 34.3875 7.6875 34.1875C7.9625 33.925 8 33.775 8 33C8 32.225 7.9625 32.075 7.6875 31.8125C7.5 31.6125 7.2375 31.5 7 31.5C6.7625 31.5 6.5 31.6125 6.3125 31.8125Z" fill="#31A0EB"/>
<path d="M9.3125 32.8125C9.1125 33 9 33.2625 9 33.5C9 33.7375 9.1125 34 9.3125 34.1875C9.575 34.4625 9.725 34.5 10.5 34.5C11.275 34.5 11.425 34.4625 11.6875 34.1875C12.1 33.7875 12.1 33.2125 11.6875 32.8125C11.425 32.5375 11.275 32.5 10.5 32.5C9.725 32.5 9.575 32.5375 9.3125 32.8125Z" fill="#31A0EB"/>
<path d="M13.3125 32.8125C13.1125 33 13 33.2625 13 33.5C13 33.7375 13.1125 34 13.3125 34.1875C13.575 34.4625 13.725 34.5 14.5 34.5C15.275 34.5 15.425 34.4625 15.6875 34.1875C16.1 33.7875 16.1 33.2125 15.6875 32.8125C15.425 32.5375 15.275 32.5 14.5 32.5C13.725 32.5 13.575 32.5375 13.3125 32.8125Z" fill="#31A0EB"/>
<path d="M17.3125 32.8125C17.1125 33 17 33.2625 17 33.5C17 33.7375 17.1125 34 17.3125 34.1875C17.575 34.4625 17.725 34.5 18.5 34.5C19.275 34.5 19.425 34.4625 19.6875 34.1875C19.8875 34 20 33.7375 20 33.5C20 33.2625 19.8875 33 19.6875 32.8125C19.425 32.5375 19.275 32.5 18.5 32.5C17.725 32.5 17.575 32.5375 17.3125 32.8125Z" fill="#31A0EB"/>
<path d="M21.3125 32.8125C21.1125 33 21 33.2625 21 33.5C21 33.7375 21.1125 34 21.3125 34.1875C21.575 34.4625 21.725 34.5 22.5 34.5C23.275 34.5 23.425 34.4625 23.6875 34.1875C23.8875 34 24 33.7375 24 33.5C24 33.2625 23.8875 33 23.6875 32.8125C23.425 32.5375 23.275 32.5 22.5 32.5C21.725 32.5 21.575 32.5375 21.3125 32.8125Z" fill="#31A0EB"/>
<path d="M25.3125 32.8125C25.1125 33 25 33.2625 25 33.5C25 33.7375 25.1125 34 25.3125 34.1875C25.575 34.4625 25.725 34.5 26.5 34.5C27.275 34.5 27.425 34.4625 27.6875 34.1875C27.8875 34 28 33.7375 28 33.5C28 33.2625 27.8875 33 27.6875 32.8125C27.425 32.5375 27.275 32.5 26.5 32.5C25.725 32.5 25.575 32.5375 25.3125 32.8125Z" fill="#31A0EB"/>
<path d="M30.3125 45.8125C30.1125 46 30 46.2625 30 46.5C30 46.7375 30.1125 47 30.3125 47.1875C30.6 47.4875 30.7 47.5 32 47.5C33.3 47.5 33.4 47.4875 33.6875 47.1875C33.8875 47 34 46.7375 34 46.5C34 46.2625 33.8875 46 33.6875 45.8125C33.4 45.5125 33.3 45.5 32 45.5C30.7 45.5 30.6 45.5125 30.3125 45.8125Z" fill="#31A0EB"/>
</svg>
