<svg width="64" height="64" viewBox="0 0 64 64" fill="none" xmlns="http://www.w3.org/2000/svg">
<path d="M34.025 2.1625C33.4875 2.325 32.575 3.1375 32.375 3.6125L32.225 4L20.0125 4.025L7.8125 4.0625L6.975 4.4625C5.8125 5.0125 5.0875 5.7125 4.525 6.85L4.0625 7.8V27V46.2L4.525 47.15C5.0875 48.2875 5.8125 48.9875 6.975 49.5375L7.8125 49.9375L16.4125 49.975L25 50.0125V53V56H21.8C19.65 56 18.425 56.05 18.075 56.15C17.3875 56.35 16.35 57.3875 16.15 58.075C16.0625 58.3625 16 59.225 16 59.9875C16 61.3 16.0125 61.4 16.3125 61.6875L16.6125 62H32H47.3875L47.6875 61.6875C47.9875 61.4 48 61.3 48 59.9875C48 59.225 47.9375 58.3625 47.85 58.075C47.65 57.3875 46.6125 56.35 45.925 56.15C45.575 56.05 44.35 56 42.2 56H39V53V50.0125L47.6 49.975L56.1875 49.9375L57.025 49.5375C58.1875 48.9875 58.9125 48.2875 59.475 47.15L59.9375 46.2L59.975 39.9875C60.0125 33.8625 60.0125 33.7625 60.2625 33.6875C60.675 33.55 61.3625 32.875 61.6625 32.325C61.925 31.8375 61.9375 31.6375 61.975 28.25C62.025 24.525 61.975 24.0375 61.475 23.3375C61.2375 23 61.2375 23 61.475 22.65C61.95 21.9625 62 21.5625 62 18C62 14.4375 61.95 14.0375 61.475 13.3375C61.2375 13 61.2375 13 61.475 12.65C61.6 12.4625 61.775 12.125 61.85 11.8875C62.0625 11.2875 62.05 4.775 61.85 4.075C61.65 3.3875 60.6125 2.35 59.925 2.15C59.2375 1.95 34.65 1.95 34.025 2.1625ZM59.6875 4.3125L60 4.6125V8V11.3875L59.6875 11.6875L59.3875 12H47H34.6125L34.3125 11.6875L34 11.3875V8V4.6125L34.3125 4.3125L34.6125 4H47H59.3875L59.6875 4.3125ZM32 8.7375C32 11.5375 32.0625 11.9875 32.525 12.65C32.7625 13 32.7625 13 32.525 13.3375C32.05 14.0375 32 14.4375 32 18C32 21.5625 32.05 21.9625 32.525 22.65C32.7625 23 32.7625 23 32.525 23.3375C32.4 23.5375 32.225 23.875 32.15 24.1125C31.9375 24.7125 31.95 31.225 32.15 31.925C32.35 32.6125 33.3875 33.65 34.075 33.85C34.4625 33.9625 37.475 34 46.3 34H58V38V42H32H6V25.3C6 12.55 6.0375 8.475 6.15 8.075C6.3375 7.4375 7.3875 6.3625 8 6.1625C8.3 6.0625 12.0125 6.025 20.225 6.0125L32 6V8.7375ZM59.6875 14.3125L60 14.6125V18V21.3875L59.6875 21.6875L59.3875 22H47H34.6125L34.3125 21.6875L34 21.3875V18V14.6125L34.3125 14.3125L34.6125 14H47H59.3875L59.6875 14.3125ZM59.6875 24.3125L60 24.6125V28V31.3875L59.6875 31.6875L59.3875 32H47H34.6125L34.3125 31.6875L34 31.3875V28V24.6125L34.3125 24.3125L34.6125 24H47H59.3875L59.6875 24.3125ZM58 44.7C58 45.0875 57.9375 45.6375 57.85 45.925C57.65 46.6125 56.6125 47.65 55.925 47.85C55.175 48.075 8.825 48.075 8.075 47.85C7.3875 47.65 6.35 46.6125 6.15 45.925C6.0625 45.6375 6 45.0875 6 44.7V44H32H58V44.7ZM37 53V56H32H27V53V50H32H37V53ZM45.6875 58.3125C45.95 58.5625 46 58.7375 46 59.3125V60H32H18V59.3125C18 58.7375 18.05 58.5625 18.3125 58.3125L18.6125 58H32H45.3875L45.6875 58.3125Z" fill="#31A0EB"/>
<path d="M36.3125 5.3125C36 5.6125 36 5.6375 36 8C36 10.3625 36 10.3875 36.3125 10.6875L36.6125 11H41H45.3875L45.6875 10.6875C46 10.3875 46 10.3625 46 8C46 5.6375 46 5.6125 45.6875 5.3125L45.3875 5H41H36.6125L36.3125 5.3125ZM44 8V9H41H38V8V7H41H44V8Z" fill="#31A0EB"/>
<path d="M48.3125 6.3125C48.0125 6.6 48 6.7 48 8C48 9.3 48.0125 9.4 48.3125 9.6875C48.5 9.8875 48.7625 10 49 10C49.2375 10 49.5 9.8875 49.6875 9.6875C49.9875 9.4 50 9.3 50 8C50 6.7 49.9875 6.6 49.6875 6.3125C49.5 6.1125 49.2375 6 49 6C48.7625 6 48.5 6.1125 48.3125 6.3125Z" fill="#31A0EB"/>
<path d="M52.3125 6.3125C52.0125 6.6 52 6.7 52 8C52 9.3 52.0125 9.4 52.3125 9.6875C52.5 9.8875 52.7625 10 53 10C53.2375 10 53.5 9.8875 53.6875 9.6875C53.9875 9.4 54 9.3 54 8C54 6.7 53.9875 6.6 53.6875 6.3125C53.5 6.1125 53.2375 6 53 6C52.7625 6 52.5 6.1125 52.3125 6.3125Z" fill="#31A0EB"/>
<path d="M56.3125 6.3125C56.0125 6.6 56 6.7 56 8C56 9.3 56.0125 9.4 56.3125 9.6875C56.5 9.8875 56.7625 10 57 10C57.2375 10 57.5 9.8875 57.6875 9.6875C57.9875 9.4 58 9.3 58 8C58 6.7 57.9875 6.6 57.6875 6.3125C57.5 6.1125 57.2375 6 57 6C56.7625 6 56.5 6.1125 56.3125 6.3125Z" fill="#31A0EB"/>
<path d="M18.475 7.12507C18.15 7.32507 14 14.6626 14 15.0501C14 15.7376 14.875 16.2126 15.5 15.8751C15.8375 15.7001 20 8.36257 20 7.95007C20 7.26257 19.0875 6.77507 18.475 7.12507Z" fill="#31A0EB"/>
<path d="M9.91224 10.1875C8.06224 11.425 7.87474 11.625 8.04974 12.3125C8.16224 12.725 11.5247 15 12.0372 15C12.7247 15 13.2122 14.1375 12.8747 13.5125C12.8122 13.3875 12.3372 13.0125 11.8247 12.675C11.2997 12.3375 10.8747 12.0375 10.8747 12C10.8747 11.9625 11.2997 11.6625 11.8247 11.325C12.3372 10.9875 12.8122 10.6125 12.8747 10.4875C13.2122 9.8625 12.7247 9 12.0372 9C11.7997 9 11.0997 9.3875 9.91224 10.1875Z" fill="#31A0EB"/>
<path d="M21.3126 9.3125C20.9876 9.625 20.9126 10.1 21.1251 10.4875C21.1876 10.6125 21.6626 10.9875 22.1751 11.325C22.7001 11.6625 23.1251 11.9625 23.1251 12C23.1251 12.0375 22.7001 12.3375 22.1751 12.675C21.6626 13.0125 21.1876 13.3875 21.1251 13.5125C20.7876 14.1375 21.2751 15 21.9626 15C22.4751 15 25.8376 12.725 25.9501 12.3125C26.1251 11.625 25.9376 11.425 24.0876 10.1875C22.1501 8.8875 21.8251 8.7875 21.3126 9.3125Z" fill="#31A0EB"/>
<path d="M8.3125 18.3125C8.1125 18.5 8 18.7625 8 19C8 19.2375 8.1125 19.5 8.3125 19.6875C8.6 19.9875 8.7 20 10 20C11.3 20 11.4 19.9875 11.6875 19.6875C11.8875 19.5 12 19.2375 12 19C12 18.7625 11.8875 18.5 11.6875 18.3125C11.4 18.0125 11.3 18 10 18C8.7 18 8.6 18.0125 8.3125 18.3125Z" fill="#31A0EB"/>
<path d="M14.3125 18.3125C14.1125 18.5 14 18.7625 14 19C14 19.2375 14.1125 19.5 14.3125 19.6875L14.6125 20H22H29.3875L29.6875 19.6875C30.1 19.2875 30.1 18.7125 29.6875 18.3125L29.3875 18H22H14.6125L14.3125 18.3125Z" fill="#31A0EB"/>
<path d="M8.3125 22.3125C8.1125 22.5 8 22.7625 8 23C8 23.2375 8.1125 23.5 8.3125 23.6875L8.6125 24H16H23.3875L23.6875 23.6875C24.1 23.2875 24.1 22.7125 23.6875 22.3125L23.3875 22H16H8.6125L8.3125 22.3125Z" fill="#31A0EB"/>
<path d="M8.3125 26.3125C8.1125 26.5 8 26.7625 8 27C8 27.2375 8.1125 27.5 8.3125 27.6875C8.6 27.9875 8.7 28 10 28C11.3 28 11.4 27.9875 11.6875 27.6875C11.8875 27.5 12 27.2375 12 27C12 26.7625 11.8875 26.5 11.6875 26.3125C11.4 26.0125 11.3 26 10 26C8.7 26 8.6 26.0125 8.3125 26.3125Z" fill="#31A0EB"/>
<path d="M14.3125 26.3125C14.1125 26.5 14 26.7625 14 27C14 27.2375 14.1125 27.5 14.3125 27.6875L14.6125 28H22H29.3875L29.6875 27.6875C30.1 27.2875 30.1 26.7125 29.6875 26.3125L29.3875 26H22H14.6125L14.3125 26.3125Z" fill="#31A0EB"/>
<path d="M8.3125 30.3125C8.1125 30.5 8 30.7625 8 31C8 31.2375 8.1125 31.5 8.3125 31.6875L8.6125 32H13H17.3875L17.6875 31.6875C17.8875 31.5 18 31.2375 18 31C18 30.7625 17.8875 30.5 17.6875 30.3125L17.3875 30H13H8.6125L8.3125 30.3125Z" fill="#31A0EB"/>
<path d="M20.3125 30.3125C20.1125 30.5 20 30.7625 20 31C20 31.2375 20.1125 31.5 20.3125 31.6875C20.6 31.9875 20.7 32 22 32C23.3 32 23.4 31.9875 23.6875 31.6875C23.8875 31.5 24 31.2375 24 31C24 30.7625 23.8875 30.5 23.6875 30.3125C23.4 30.0125 23.3 30 22 30C20.7 30 20.6 30.0125 20.3125 30.3125Z" fill="#31A0EB"/>
<path d="M8.3125 34.3125C8.1125 34.5 8 34.7625 8 35C8 35.2375 8.1125 35.5 8.3125 35.6875C8.6 35.9875 8.7 36 10 36C11.3 36 11.4 35.9875 11.6875 35.6875C11.8875 35.5 12 35.2375 12 35C12 34.7625 11.8875 34.5 11.6875 34.3125C11.4 34.0125 11.3 34 10 34C8.7 34 8.6 34.0125 8.3125 34.3125Z" fill="#31A0EB"/>
<path d="M14.3125 34.3125C14.1125 34.5 14 34.7625 14 35C14 35.2375 14.1125 35.5 14.3125 35.6875L14.6125 36H22H29.3875L29.6875 35.6875C30.1 35.2875 30.1 34.7125 29.6875 34.3125L29.3875 34H22H14.6125L14.3125 34.3125Z" fill="#31A0EB"/>
<path d="M8.3125 38.3125C8.1125 38.5 8 38.7625 8 39C8 39.2375 8.1125 39.5 8.3125 39.6875L8.6125 40H16H23.3875L23.6875 39.6875C24.1 39.2875 24.1 38.7125 23.6875 38.3125L23.3875 38H16H8.6125L8.3125 38.3125Z" fill="#31A0EB"/>
<path d="M26.3125 38.3125C26.1125 38.5 26 38.7625 26 39C26 39.2375 26.1125 39.5 26.3125 39.6875C26.6 39.9875 26.7 40 28 40C29.3 40 29.4 39.9875 29.6875 39.6875C29.8875 39.5 30 39.2375 30 39C30 38.7625 29.8875 38.5 29.6875 38.3125C29.4 38.0125 29.3 38 28 38C26.7 38 26.6 38.0125 26.3125 38.3125Z" fill="#31A0EB"/>
<path d="M36.3125 15.3125C36 15.6125 36 15.6375 36 18C36 20.3625 36 20.3875 36.3125 20.6875L36.6125 21H41H45.3875L45.6875 20.6875C46 20.3875 46 20.3625 46 18C46 15.6375 46 15.6125 45.6875 15.3125L45.3875 15H41H36.6125L36.3125 15.3125ZM44 18V19H41H38V18V17H41H44V18Z" fill="#31A0EB"/>
<path d="M48.3125 16.3125C48.0125 16.6 48 16.7 48 18C48 19.3 48.0125 19.4 48.3125 19.6875C48.5 19.8875 48.7625 20 49 20C49.2375 20 49.5 19.8875 49.6875 19.6875C49.9875 19.4 50 19.3 50 18C50 16.7 49.9875 16.6 49.6875 16.3125C49.5 16.1125 49.2375 16 49 16C48.7625 16 48.5 16.1125 48.3125 16.3125Z" fill="#31A0EB"/>
<path d="M52.3125 16.3125C52.0125 16.6 52 16.7 52 18C52 19.3 52.0125 19.4 52.3125 19.6875C52.5 19.8875 52.7625 20 53 20C53.2375 20 53.5 19.8875 53.6875 19.6875C53.9875 19.4 54 19.3 54 18C54 16.7 53.9875 16.6 53.6875 16.3125C53.5 16.1125 53.2375 16 53 16C52.7625 16 52.5 16.1125 52.3125 16.3125Z" fill="#31A0EB"/>
<path d="M56.3125 16.3125C56.0125 16.6 56 16.7 56 18C56 19.3 56.0125 19.4 56.3125 19.6875C56.5 19.8875 56.7625 20 57 20C57.2375 20 57.5 19.8875 57.6875 19.6875C57.9875 19.4 58 19.3 58 18C58 16.7 57.9875 16.6 57.6875 16.3125C57.5 16.1125 57.2375 16 57 16C56.7625 16 56.5 16.1125 56.3125 16.3125Z" fill="#31A0EB"/>
<path d="M36.3125 25.3125C36 25.6125 36 25.6375 36 28C36 30.3625 36 30.3875 36.3125 30.6875L36.6125 31H41H45.3875L45.6875 30.6875C46 30.3875 46 30.3625 46 28C46 25.6375 46 25.6125 45.6875 25.3125L45.3875 25H41H36.6125L36.3125 25.3125ZM44 28V29H41H38V28V27H41H44V28Z" fill="#31A0EB"/>
<path d="M48.3125 26.3125C48.0125 26.6 48 26.7 48 28C48 29.3 48.0125 29.4 48.3125 29.6875C48.5 29.8875 48.7625 30 49 30C49.2375 30 49.5 29.8875 49.6875 29.6875C49.9875 29.4 50 29.3 50 28C50 26.7 49.9875 26.6 49.6875 26.3125C49.5 26.1125 49.2375 26 49 26C48.7625 26 48.5 26.1125 48.3125 26.3125Z" fill="#31A0EB"/>
<path d="M52.3125 26.3125C52.0125 26.6 52 26.7 52 28C52 29.3 52.0125 29.4 52.3125 29.6875C52.5 29.8875 52.7625 30 53 30C53.2375 30 53.5 29.8875 53.6875 29.6875C53.9875 29.4 54 29.3 54 28C54 26.7 53.9875 26.6 53.6875 26.3125C53.5 26.1125 53.2375 26 53 26C52.7625 26 52.5 26.1125 52.3125 26.3125Z" fill="#31A0EB"/>
<path d="M56.3125 26.3125C56.0125 26.6 56 26.7 56 28C56 29.3 56.0125 29.4 56.3125 29.6875C56.5 29.8875 56.7625 30 57 30C57.2375 30 57.5 29.8875 57.6875 29.6875C57.9875 29.4 58 29.3 58 28C58 26.7 57.9875 26.6 57.6875 26.3125C57.5 26.1125 57.2375 26 57 26C56.7625 26 56.5 26.1125 56.3125 26.3125Z" fill="#31A0EB"/>
<path d="M30.3125 45.3125C30.1125 45.5 30 45.7625 30 46C30 46.2375 30.1125 46.5 30.3125 46.6875C30.6 46.9875 30.7 47 32 47C33.3 47 33.4 46.9875 33.6875 46.6875C33.8875 46.5 34 46.2375 34 46C34 45.7625 33.8875 45.5 33.6875 45.3125C33.4 45.0125 33.3 45 32 45C30.7 45 30.6 45.0125 30.3125 45.3125Z" fill="#31A0EB"/>
</svg>
