<svg width="64" height="64" viewBox="0 0 64 64" fill="none" xmlns="http://www.w3.org/2000/svg">
<path d="M60.3252 0.200054C54.5127 0.862556 48.1002 2.65005 42.9877 5.03755C40.2377 6.31255 37.1127 8.25005 34.7502 10.125C33.4627 11.1501 30.8627 13.6626 29.7252 14.9626L29.1502 15.625L28.1002 15.125C22.6377 12.5625 17.3502 14.9375 14.1002 21.4125C12.9877 23.65 12.2252 26.3126 12.0502 28.5751C11.9377 30.1751 12.2627 30.75 13.3002 30.75C13.6377 30.75 13.8877 30.6126 14.4627 30.125C15.8752 28.9001 17.9127 28.1376 19.7627 28.125C20.4002 28.125 20.6627 28.1875 20.8877 28.3626L21.1877 28.6L20.9502 29.2126C20.3627 30.725 19.5002 33.2875 19.2377 34.3375C18.9877 35.3375 18.9627 35.5625 19.0877 36.15C19.2127 36.7125 19.2002 36.825 19.0377 36.9375C18.9252 37 18.4127 37.3375 17.9002 37.6625C15.9752 38.9 14.8502 40.2625 13.8877 42.525C13.2252 44.0625 12.4627 47.0875 12.1752 49.2375C11.9627 50.8375 11.9752 50.925 12.1877 51.3125C12.6002 52.1 12.9752 52.125 16.0002 51.625C18.9752 51.125 21.7377 50.1875 23.4627 49.1C24.4627 48.475 25.7252 47.1 26.5377 45.775C27.0002 45.0125 27.2252 44.7625 27.3627 44.8125C27.9752 45.05 28.7502 45.0125 29.9252 44.7C31.0502 44.3875 33.2877 43.625 34.7877 43.05L35.4002 42.8125L35.6502 43.125C35.8877 43.4125 35.9002 43.55 35.8377 44.625C35.7127 46.575 35.1002 48.1125 33.8752 49.5375C33.3877 50.1125 33.2502 50.3625 33.2502 50.7C33.2502 51.7375 33.8252 52.0625 35.4252 51.95C40.0752 51.6 45.2627 49.0625 47.7627 45.9125C50.1377 42.9125 50.5252 39.4375 48.8752 35.9L48.3752 34.85L49.0377 34.275C50.3377 33.15 52.8502 30.5375 53.8502 29.2875C59.1127 22.6626 62.6752 13.4251 63.8127 3.50005C64.0377 1.46255 64.0502 1.11256 63.8502 0.687557C63.5252 -0.0249443 62.9627 -0.0999451 60.3252 0.200054ZM61.3252 3.33755C61.0127 5.93755 60.4127 9.06255 59.7252 11.5625C59.5127 12.3125 59.3127 13.0625 59.2877 13.2126C59.2502 13.375 59.1877 13.5 59.1377 13.5C59.0252 13.5 50.4377 4.88755 50.5002 4.83755C50.6002 4.76255 52.3252 4.28755 53.9377 3.88755C55.8127 3.41255 59.8627 2.71255 61.0502 2.65005L61.4002 2.62505L61.3252 3.33755ZM53.0377 10.9751L58.2627 16.2001L57.6752 17.7001C56.4752 20.7125 54.5502 24.1751 52.7002 26.6625C49.1002 31.5126 43.4627 36.075 37.2877 39.175C36.6502 39.4875 36.0627 39.75 35.9752 39.75C35.7627 39.75 24.2502 28.2376 24.2502 28.0251C24.2502 27.5626 26.3877 23.725 27.8752 21.5C32.1252 15.1501 36.9252 10.8501 43.1877 7.75005C44.8502 6.92505 47.5127 5.76255 47.7502 5.75005C47.7877 5.75005 50.1627 8.10005 53.0377 10.9751ZM25.4627 16.8C25.8127 16.9001 26.4252 17.1125 26.8127 17.3C27.4752 17.6001 27.5127 17.6376 27.3627 17.8625C25.6627 20.225 24.2002 22.55 23.0627 24.6875C22.6627 25.4375 22.3252 26.075 22.3127 26.1C22.3002 26.1125 22.1252 26.0375 21.9127 25.9375C21.3877 25.675 19.5002 25.575 18.3252 25.7375C17.4877 25.85 15.9252 26.3126 15.0752 26.6876C14.8627 26.7751 14.8502 26.75 14.9252 26.325C14.9752 26.075 15.1627 25.425 15.3377 24.9C16.6502 20.9375 19.1502 17.875 21.8627 16.925C22.8377 16.5751 24.4252 16.5251 25.4627 16.8ZM28.3127 35.75C31.1252 38.5625 33.4002 40.8875 33.3752 40.9125C33.2502 41.0125 31.1002 41.75 29.8127 42.125C28.9627 42.375 28.3377 42.4875 28.1377 42.4375C27.7377 42.3375 21.8252 36.4875 21.6127 35.975C21.5002 35.6875 21.5127 35.475 21.6752 34.8375C22.0127 33.6125 23.0377 30.625 23.1127 30.625C23.1502 30.625 25.4877 32.9251 28.3127 35.75ZM46.6127 36.9625C47.4252 38.5625 47.6127 40.6375 47.0752 42.1375C46.5002 43.7875 45.1127 45.4125 43.2127 46.6625C41.8127 47.5875 40.8627 48.05 39.1377 48.6375C37.4877 49.1875 37.1752 49.2375 37.3127 48.9C38.0877 47.0875 38.4377 45.3375 38.3377 43.6625C38.3002 42.9875 38.1877 42.3375 38.0752 42.1125C37.9627 41.8875 37.8877 41.7 37.9002 41.6875C37.9252 41.675 38.5002 41.3625 39.1877 41C41.3877 39.8375 44.2002 38.075 45.7377 36.9125C46.0377 36.6875 46.3002 36.5 46.3252 36.5C46.3502 36.5 46.4752 36.7125 46.6127 36.9625ZM22.9627 41.025C24.0877 42.15 25.0002 43.1375 25.0002 43.225C25.0002 43.8875 23.2752 46.2125 22.2877 46.8875C21.0627 47.7375 18.6627 48.5875 16.1877 49.0625C14.6502 49.35 14.7002 49.375 14.8127 48.525C15.0627 46.4125 16.2127 43 17.1127 41.7125C17.7877 40.725 20.0877 39.0125 20.7502 39C20.8502 39 21.8502 39.9125 22.9627 41.025Z" fill="#31A0EB"/>
<path d="M44.138 12.7625C42.9505 12.9125 41.6505 13.575 40.688 14.5375C39.438 15.7875 38.8755 17.1625 38.8755 18.95C38.8755 22.425 41.5755 25.125 45.0505 25.125C46.838 25.125 48.213 24.5625 49.463 23.3125C51.338 21.4375 51.8255 18.6625 50.7005 16.2875C49.5005 13.775 46.988 12.425 44.138 12.7625ZM46.5755 15.5C49.4505 16.725 49.5505 20.8375 46.7255 22.2375C46.088 22.5625 45.813 22.625 45.063 22.625C42.938 22.625 41.3755 21.0625 41.3755 18.925C41.3755 18.1875 41.438 17.9125 41.763 17.275C42.6505 15.4875 44.738 14.7125 46.5755 15.5Z" fill="#31A0EB"/>
<path d="M37.4377 24.9001C37.0502 25.1126 35.3752 26.7751 35.1752 27.1501C34.5752 28.3001 35.7002 29.4251 36.8502 28.8251C37.2502 28.6126 38.9126 26.9376 39.1126 26.5376C39.6376 25.5001 38.4501 24.3376 37.4377 24.9001Z" fill="#31A0EB"/>
<path d="M32.4128 30.1C31.5503 30.2375 31.1878 31.475 31.8378 32.15C32.4753 32.8249 33.7253 32.4749 33.9003 31.5875C33.9753 31.225 33.8003 30.5625 33.5753 30.3875C33.3378 30.1875 32.7503 30.0375 32.4128 30.1Z" fill="#31A0EB"/>
<path d="M8.85 35.725C6.8 37.7625 6.75 37.8375 6.75 38.3375C6.75 39.125 7.175 39.5625 7.925 39.5625H8.5L10.5625 37.5C12.7875 35.275 12.95 35.0125 12.575 34.275C12.325 33.7875 12.025 33.625 11.4125 33.625C10.975 33.625 10.825 33.75 8.85 35.725Z" fill="#31A0EB"/>
<path d="M9.40024 42.4624C9.06274 42.5249 0.250243 51.3624 0.0752427 51.7999C-0.249757 52.6499 0.637742 53.5499 1.58774 53.3124C1.82524 53.2624 3.43774 51.7374 6.35024 48.8374C11.1377 44.0624 11.2377 43.9374 10.8127 43.1374C10.7002 42.8999 10.4252 42.6499 10.1877 42.5499C9.95024 42.4499 9.73774 42.3874 9.72524 42.3874C9.70024 42.3999 9.56274 42.4374 9.40024 42.4624Z" fill="#31A0EB"/>
<path d="M28.6879 51.375C28.5504 51.425 27.5129 52.4125 26.3879 53.55L24.3379 55.6125L24.4129 56.15C24.5129 56.8625 24.9504 57.25 25.6629 57.25C26.1629 57.25 26.2379 57.2 28.2754 55.15C30.2504 53.175 30.3754 53.025 30.3754 52.5875C30.3754 51.975 30.2129 51.675 29.7504 51.4375C29.3504 51.225 29.0629 51.2125 28.6879 51.375Z" fill="#31A0EB"/>
<path d="M9.87524 53.1375C9.50024 53.2875 1.06274 61.675 0.800238 62.15C0.337738 63.0375 0.937738 64 1.97524 64C2.23774 64 3.15024 63.15 6.88774 59.425C9.98774 56.325 11.5002 54.7375 11.5377 54.5125C11.6252 54.0375 11.3252 53.425 10.8877 53.2C10.4627 52.975 10.3127 52.9625 9.87524 53.1375Z" fill="#31A0EB"/>
<path d="M19.8752 53.1375C19.5002 53.2875 11.0627 61.675 10.8002 62.15C10.3377 63.0375 10.9377 64 11.9752 64C12.2377 64 13.1502 63.15 16.8877 59.425C19.9877 56.325 21.5002 54.7375 21.5377 54.5125C21.6252 54.0375 21.3252 53.425 20.8877 53.2C20.4627 52.975 20.3127 52.9625 19.8752 53.1375Z" fill="#31A0EB"/>
</svg>
