<svg width="64" height="65" viewBox="0 0 64 65" fill="none" xmlns="http://www.w3.org/2000/svg">
<g clip-path="url(#clip0_473_152)">
<path d="M4.17494 0.137501C3.31499 0.325001 2.0528 0.987499 1.44251 1.5875C1.13736 1.8875 0.679642 2.5125 0.443848 2.975L0 3.8125V26.0125V48.2L0.513199 49.15C1.13736 50.2875 1.94183 50.9875 3.23177 51.5375L4.16107 51.9375L12.9825 51.975L21.804 52.0125L21.5266 53.05C21.2492 54.05 21.2215 54.1 20.7221 54.3C20.0425 54.575 19.1687 55.4625 18.9606 56.1C18.8635 56.375 18.7942 57.225 18.7942 57.9875C18.7942 59.3 18.8081 59.4 19.1409 59.6875L19.4738 60H25.2438H31V59V58H26.0067H21.0134V57.3125C21.0134 56.7375 21.0689 56.5625 21.3602 56.3125L21.6931 56H26.3535H31V55V54H27.2689H23.5378L23.8152 53L24.0926 52H27.5463H31V51V50H18.0174C8.22506 50 4.88233 49.9625 4.45235 49.85C3.68949 49.65 2.53825 48.6125 2.31633 47.925C2.21924 47.625 2.14989 46.675 2.14989 45.7V44H16.5749H31V43V42H16.5749H2.14989V23.3C2.14989 8.975 2.1915 4.475 2.31633 4.075C2.53825 3.3875 3.68949 2.35 4.45235 2.15C4.77136 2.0625 5.63132 2 6.36644 2H7.69799V1V0L6.21387 0.0125008C5.38166 0.0249977 4.48009 0.0750008 4.17494 0.137501Z" fill="#31A0EB"/>
<path d="M4 1V2H7.5H11V1V0H7.5H4V1Z" fill="#31A0EB"/>
<path d="M3.5 1.5V2.5H36.2C54.0625 2.5 59.525 2.5375 59.925 2.65C60.6125 2.85 61.65 3.8875 61.85 4.575C62.0625 5.325 62.0625 47.675 61.85 48.425C61.6875 48.975 60.5375 50.25 60.2 50.25C60.025 50.25 60 48.5875 59.975 34.2875L59.9375 18.3125L59.5375 17.475C58.9875 16.3125 58.2875 15.5875 57.15 15.025L56.2 14.5625H45.0125H33.8125L32.975 14.9625C31.8125 15.5125 31.0875 16.2125 30.525 17.35L30.0625 18.3V39.5V60.7L30.525 61.65C31.0875 62.7875 31.8125 63.4875 32.975 64.0375L33.8125 64.4375H45H56.1875L57.025 64.0375C58.1875 63.4875 58.9125 62.7875 59.475 61.65L59.9375 60.7L59.975 56.5375C60.0125 53.2125 60.05 52.375 60.175 52.375C60.2625 52.375 60.7375 52.175 61.2125 51.9375C62.2875 51.4 63.0125 50.65 63.5375 49.525L63.9375 48.6875V26.5V4.3125L63.5375 3.475C62.9875 2.3125 62.2875 1.5875 61.15 1.025L60.2 0.5625L36.6 0.524998H9.5L3.5 1.5ZM55.925 16.65C56.6125 16.85 57.65 17.8875 57.85 18.575C58.1375 19.575 58.375 19.5 54.8125 19.5H51.6125L51.3125 19.8125C51.1125 20 51 20.2625 51 20.5C51 21.1125 50.75 21.95 50.4875 22.2375C50.25 22.5 50.15 22.5 45 22.5C39.85 22.5 39.75 22.5 39.5125 22.2375C39.25 21.95 39 21.1125 39 20.5C39 20.2625 38.8875 20 38.6875 19.8125L38.3875 19.5H35.1875C31.625 19.5 31.8625 19.575 32.15 18.575C32.3375 17.9375 33.3875 16.8625 34 16.6625C34.65 16.4625 55.225 16.45 55.925 16.65ZM37.1875 21.9C37.425 22.9625 38.175 23.95 39.025 24.3C39.725 24.6 50.275 24.6 50.975 24.3C51.825 23.95 52.575 22.9625 52.8125 21.9L52.9 21.5H55.45H58V39V56.5H45H32V39V21.5H34.55H37.1L37.1875 21.9ZM58 59.2C58 59.5875 57.9375 60.1375 57.85 60.425C57.65 61.1125 56.6125 62.15 55.925 62.35C55.1875 62.5625 34.8125 62.5625 34.075 62.35C33.3875 62.15 32.35 61.1125 32.15 60.425C32.0625 60.1375 32 59.5875 32 59.2V58.5H45H58V59.2Z" fill="#31A0EB"/>
<path d="M41 19.5V20.5H45H49V19.5V18.5H45H41V19.5Z" fill="#31A0EB"/>
<path d="M43.0627 28.6751C39.1377 29.4251 35.8502 32.2501 34.6252 35.9126C32.2877 42.8501 37.0627 49.9876 44.3627 50.4626C49.5502 50.8001 54.2627 47.3501 55.6627 42.1876C56.0252 40.8501 56.0377 38.2376 55.7002 36.9501C54.6127 32.8501 51.7502 29.9626 47.6877 28.8501C46.5377 28.5376 44.2377 28.4501 43.0627 28.6751ZM47.6877 30.9251C49.1002 31.3751 50.1627 32.0376 51.3127 33.1876C52.9502 34.8251 53.8002 36.6501 53.9627 38.8626C54.3377 44.2876 49.8377 48.8126 44.4002 48.4501C43.0627 48.3751 41.5502 47.9126 40.4002 47.2376C39.4377 46.6626 37.8002 45.0001 37.2127 44.0001C36.9502 43.5501 36.6002 42.7376 36.4127 42.1876C36.1377 41.3376 36.0877 40.9626 36.0752 39.6251C36.0627 37.7751 36.2502 36.9376 37.0252 35.3751C37.9377 33.5376 39.9502 31.7501 41.8752 31.0501C43.6627 30.4126 45.9252 30.3626 47.6877 30.9251Z" fill="#31A0EB"/>
<path d="M45.7875 35.275L43.0125 38.05L42.2 37.275C40.975 36.1 40.975 36.1 38.7875 38.2875C37.175 39.8875 37 40.1125 37 40.5C37 40.9 37.2375 41.1625 39.7875 43.7125C42.3375 46.275 42.6 46.5 43 46.5C43.4 46.5 43.7625 46.1625 48.2125 41.7125C52.6625 37.275 53 36.9 53 36.5C53 36.1125 52.825 35.8875 51.2125 34.2875C49.6125 32.6875 49.3875 32.5 49 32.5C48.6125 32.5 48.325 32.75 45.7875 35.275ZM49.8125 35.75L50.5625 36.5L46.775 40.2875L43 44.0625L41.225 42.275L39.4375 40.5L40.2125 39.725L40.9875 38.95L41.8 39.725C43.075 40.95 42.9 41.025 46.1875 37.75C47.7 36.2375 48.9625 35 49 35C49.0375 35 49.4 35.3375 49.8125 35.75Z" fill="#31A0EB"/>
<path d="M41 60.5V61.5H45H49V60.5V59.5H45H41V60.5Z" fill="#31A0EB"/>
<path d="M14.3125 7.3125C14.0375 7.575 14 7.725 14 8.5375V9.4625L13.1625 9.7875L12.325 10.125L11.6625 9.475C10.65 8.475 10.5625 8.5125 8.5375 10.5375C6.5125 12.5625 6.475 12.65 7.475 13.6625L8.125 14.325L7.7875 15.1625L7.4625 16H6.5375C5.725 16 5.575 16.0375 5.3125 16.3125C5 16.6125 5 16.6375 5 19C5 21.3625 5 21.3875 5.3125 21.6875C5.575 21.9625 5.725 22 6.5375 22H7.4625L7.7875 22.8375L8.125 23.675L7.475 24.3375C6.475 25.35 6.5125 25.4375 8.5375 27.4625C10.5625 29.4875 10.65 29.525 11.6625 28.525L12.325 27.875L13.1625 28.2125L14 28.5375V29.4625C14 30.275 14.0375 30.425 14.3125 30.6875C14.6125 31 14.6375 31 17 31C19.3625 31 19.3875 31 19.6875 30.6875C19.9625 30.425 20 30.275 20 29.4625V28.5375L20.8375 28.2125L21.675 27.875L22.3375 28.525C23.35 29.525 23.4375 29.4875 25.4625 27.4625C27.4875 25.4375 27.525 25.35 26.525 24.3375L25.875 23.675L26.2125 22.8375L26.5375 22H27.4625C28.275 22 28.425 21.9625 28.6875 21.6875C29 21.3875 29 21.3625 29 19C29 16.6375 29 16.6125 28.6875 16.3125C28.425 16.0375 28.275 16 27.4625 16H26.5375L26.2125 15.1625L25.875 14.325L26.525 13.6625C27.525 12.65 27.4875 12.5625 25.4625 10.5375C23.4375 8.5125 23.35 8.475 22.3375 9.475L21.675 10.125L20.8375 9.7875L20 9.4625V8.5375C20 7.725 19.9625 7.575 19.6875 7.3125C19.3875 7 19.3625 7 17 7C14.6375 7 14.6125 7 14.3125 7.3125ZM18 9.7875C18 10.7875 18.1875 11 19.3375 11.375C19.8 11.525 20.4875 11.8125 20.8375 12.0125C21.75 12.5125 22.0125 12.4875 22.7625 11.7875L23.3875 11.2L24.0875 11.9125L24.8 12.6125L24.2125 13.2375C23.5125 13.9875 23.4875 14.25 23.9875 15.1625C24.1875 15.5125 24.475 16.2 24.625 16.6625C25 17.8125 25.2125 18 26.2125 18H27V19V20H26.2125C25.2125 20 25 20.1875 24.625 21.3375C24.475 21.8 24.1875 22.4875 23.9875 22.8375C23.4875 23.75 23.5125 24.0125 24.2125 24.7625L24.8 25.3875L24.0875 26.0875L23.3875 26.8L22.7625 26.2125C22.0125 25.5125 21.75 25.4875 20.8375 25.9875C20.4875 26.1875 19.8 26.475 19.3375 26.625C18.1875 27 18 27.2125 18 28.2125V29H17H16V28.2125C16 27.2125 15.8125 27 14.6625 26.625C14.2 26.475 13.5125 26.1875 13.1625 25.9875C12.25 25.4875 11.9875 25.5125 11.2375 26.2125L10.6125 26.8L9.9125 26.0875L9.2 25.3875L9.7875 24.7625C10.4875 24.0125 10.5125 23.75 10.0125 22.8375C9.8125 22.4875 9.525 21.8 9.375 21.3375C9 20.1875 8.7875 20 7.7875 20H7V19V18H7.7875C8.7875 18 9 17.8125 9.375 16.6625C9.525 16.2 9.8125 15.5125 10.0125 15.1625C10.5125 14.25 10.4875 13.9875 9.7875 13.2375L9.2 12.6125L9.9125 11.9125L10.6125 11.2L11.2375 11.7875C11.9875 12.4875 12.25 12.5125 13.1625 12.0125C13.5125 11.8125 14.2 11.525 14.6625 11.375C15.8125 11 16 10.7875 16 9.7875V9H17H18V9.7875Z" fill="#31A0EB"/>
<path d="M15.825 14.125C15.0375 14.325 13.9125 15 13.3625 15.5875C13.0875 15.8875 12.675 16.5125 12.4625 16.975C12.1 17.7375 12.0625 17.925 12.0625 19.0125C12.0625 20.1375 12.0875 20.25 12.525 21.15C13.0875 22.2875 13.8125 22.9875 14.975 23.5375C15.7375 23.9 15.925 23.9375 17 23.9375C18.075 23.9375 18.2625 23.9 19.025 23.5375C20.1875 22.9875 20.9125 22.2875 21.475 21.15C21.9125 20.25 21.9375 20.1375 21.9375 19C21.9375 17.8625 21.9125 17.75 21.475 16.85C20.625 15.15 19.125 14.1375 17.275 14.05C16.75 14.025 16.1 14.0625 15.825 14.125ZM17.925 16.15C19 16.475 20 17.85 20 19C20 20.15 19 21.525 17.925 21.85C16.75 22.2 15.8125 21.95 14.9375 21.0625C13.6625 19.8 13.6625 18.2 14.9375 16.9375C15.8125 16.05 16.75 15.8125 17.925 16.15Z" fill="#31A0EB"/>
<path d="M27.3125 30.3125C27.0375 30.575 27 30.725 27 31.5375V32.4625L26.1625 32.7875L25.325 33.125L24.6625 32.475C23.65 31.475 23.5625 31.5125 21.5375 33.5375C19.5125 35.5625 19.475 35.65 20.475 36.6625L21.125 37.325L20.7875 38.1625L20.4625 39H19.5375C18.725 39 18.575 39.0375 18.3125 39.3125C18 39.6125 18 39.65 18 41.8125V44H19H20V42.5V41H20.7875C21.7875 41 22 40.8125 22.375 39.6625C22.525 39.2 22.8125 38.5125 23.0125 38.1625C23.5125 37.25 23.4875 36.9875 22.7875 36.2375L22.2 35.6125L22.9125 34.9125L23.6125 34.2L24.2375 34.7875C24.9875 35.4875 25.25 35.5125 26.1625 35.0125C26.5125 34.8125 27.2 34.525 27.6625 34.375C28.8125 34 29 33.7875 29 32.7875V32H30.5H32V31V30H29.8125C27.65 30 27.6125 30 27.3125 30.3125Z" fill="#31A0EB"/>
<path d="M28.8625 37.1375C28.0875 37.325 26.95 37.9875 26.4 38.5875C25.775 39.275 25.2 40.475 25.0875 41.3375L25 42H25.9875H26.975L27.125 41.3625C27.4 40.2375 28.275 39.3625 29.4 39.0875L30.0375 38.9375V37.975V37L29.7 37.0125C29.5 37.025 29.1375 37.075 28.8625 37.1375Z" fill="#31A0EB"/>
</g>
<defs>
<clipPath id="clip0_473_152">
<rect width="64" height="64" fill="white" transform="translate(0 0.5)"/>
</clipPath>
</defs>
</svg>
