<svg width="64" height="65" viewBox="0 0 64 65" fill="none" xmlns="http://www.w3.org/2000/svg">
<g clip-path="url(#clip0_424_127)">
<path d="M7.5625 0.712425C5.9 1.31243 5 2.68743 5 4.62493V5.47493L3.9125 5.52493C2.5875 5.58743 1.875 5.87493 1.125 6.62493C0.8375 6.91243 0.475 7.41243 0.325 7.73743L0.0625 8.31243V29.6249V50.9374L0.325 51.5124C0.675 52.2624 1.4875 53.0749 2.2375 53.4249L2.8125 53.6874L18.7 53.7249L34.5875 53.7499L34.875 54.5374C36.6875 59.5499 41 63.2124 46.3125 64.2624C47.5875 64.5124 50.55 64.4874 51.875 64.2124C55.8625 63.3624 59.275 61.0874 61.4375 57.8249C62.6125 56.0374 63.2625 54.4874 63.7125 52.3749C64.0125 50.9749 64 47.8499 63.7 46.5249C62.75 42.2624 60.275 38.7874 56.6875 36.6374L55.8125 36.1124L55.75 22.2124C55.6875 8.32492 55.6875 8.31243 55.425 7.73743C55.075 6.98743 54.2625 6.17493 53.5125 5.82492C53 5.58743 52.675 5.56243 50.6125 5.52493L48.275 5.47493L48.225 4.39993C48.1625 3.08743 47.875 2.37493 47.125 1.62493C46.3625 0.862427 45.6375 0.562428 44.5 0.562428C43.3625 0.562428 42.6375 0.862427 41.875 1.62493C41.125 2.37493 40.8375 3.08743 40.775 4.39993L40.725 5.49993H35.5625H30.4L30.35 4.39993C30.2875 3.08743 30 2.37493 29.25 1.62493C28.4875 0.862427 27.7625 0.562428 26.625 0.562428C25.4875 0.562428 24.7625 0.862427 24 1.62493C23.25 2.37493 22.9625 3.08743 22.9 4.39993L22.85 5.49993H17.6875H12.525L12.475 4.39993C12.4125 3.08743 12.125 2.37493 11.375 1.62493C10.375 0.624928 8.8375 0.262428 7.5625 0.712425ZM9.5875 3.43743L10.0125 3.86243L9.975 6.79993L9.9375 9.74993L9.5875 10.0874C9.1125 10.5624 8.3875 10.5624 7.9125 10.0874L7.5625 9.74993V6.76242C7.5625 3.94992 7.575 3.76242 7.8125 3.49993C8.375 2.87493 9 2.84993 9.5875 3.43743ZM27.4 3.36243L27.8125 3.72493V6.73743V9.74993L27.4625 10.0874C27.2125 10.3499 27 10.4374 26.625 10.4374C26.25 10.4374 26.0375 10.3499 25.7875 10.0874L25.4375 9.74993V6.76242C25.4375 3.94992 25.45 3.76242 25.6875 3.49993C26.2125 2.91243 26.8375 2.86243 27.4 3.36243ZM45.275 3.36243L45.6875 3.72493V6.73743V9.74993L45.35 10.0874C45.0875 10.3499 44.875 10.4374 44.5 10.4374C44.125 10.4374 43.9125 10.3499 43.6625 10.0874L43.3125 9.74993V6.76242C43.3125 3.94992 43.325 3.76242 43.5625 3.49993C44.0875 2.91243 44.7125 2.86243 45.275 3.36243ZM5.025 9.08743C5.0875 10.4124 5.375 11.1249 6.125 11.8749C6.8875 12.6374 7.6125 12.9374 8.75 12.9374C9.8875 12.9374 10.6125 12.6374 11.375 11.8749C12.125 11.1249 12.4125 10.4124 12.475 9.08743L12.525 7.99993H17.6875H22.85L22.9 9.08743C22.9625 10.4124 23.25 11.1249 24 11.8749C24.7625 12.6374 25.4875 12.9374 26.625 12.9374C27.7625 12.9374 28.4875 12.6374 29.25 11.8749C30 11.1249 30.2875 10.4124 30.35 9.08743L30.4 7.99993H35.5625H40.725L40.775 9.08743C40.8375 10.4124 41.125 11.1249 41.875 11.8749C42.6375 12.6374 43.3625 12.9374 44.5 12.9374C45.6375 12.9374 46.3625 12.6374 47.125 11.8749C47.875 11.1249 48.1625 10.4124 48.225 9.08743L48.2875 7.98743L50.3875 8.02493L52.5 8.06243L52.8375 8.41243L53.1875 8.74993L53.225 12.3124L53.2625 15.8749H27.875H2.4875L2.525 12.3249C2.5625 8.97493 2.575 8.76242 2.8125 8.49993C3.1625 8.11243 3.45 8.01242 4.2625 8.01242L4.975 7.99993L5.025 9.08743ZM53.25 26.7249V35.0874L52.1625 34.8374C50.65 34.4874 47.625 34.4624 46.125 34.7874C40.0375 36.0874 35.575 40.5624 34.2875 46.6249C34.1375 47.3624 34.0625 48.2374 34.0625 49.4749V51.2499L18.6625 51.2249L3.25 51.1874L2.9125 50.8374L2.5625 50.4999L2.525 34.4374L2.5 18.3749H27.875H53.25V26.7249ZM52 37.3749C53.45 37.7249 55.575 38.7999 56.8375 39.7999C59.1375 41.6249 60.7875 44.4624 61.3125 47.4499C62.475 54.1374 57.8375 60.6249 51.05 61.8124C44.3625 62.9749 37.875 58.3374 36.6875 51.5499C35.525 44.8999 40.0875 38.4749 46.875 37.1874C48.1625 36.9374 50.6125 37.0249 52 37.3749Z" fill="#31A0EB"/>
<path d="M8.3124 23.8625C7.5124 24.2 7.2999 25.2375 7.9124 25.8375L8.2499 26.1875L12.6249 26.225L16.9874 26.2625L17.3999 25.8875C17.7374 25.5875 17.8124 25.4375 17.8124 25C17.8124 24.5625 17.7374 24.4125 17.3999 24.1125L16.9999 23.75L12.7749 23.7625C10.4624 23.7625 8.4499 23.8125 8.3124 23.8625Z" fill="#31A0EB"/>
<path d="M23.675 23.875C23.275 24.0375 22.875 24.6125 22.875 25.0125C22.875 25.2375 23.0125 25.525 23.2375 25.775L23.6 26.1875L27.9875 26.225L32.3625 26.2625L32.775 25.8875C33.1125 25.5875 33.1875 25.4375 33.1875 25C33.1875 24.5625 33.1125 24.4125 32.775 24.1125L32.375 23.75L28.15 23.7625C25.8375 23.7625 23.8125 23.8125 23.675 23.875Z" fill="#31A0EB"/>
<path d="M39.05 23.875C38.65 24.0375 38.25 24.6125 38.25 25.0125C38.25 25.2375 38.3875 25.525 38.6125 25.775L38.975 26.1875L43.175 26.225L47.3625 26.2625L47.775 25.8875C48.1125 25.5875 48.1875 25.4375 48.1875 25C48.1875 24.5625 48.1125 24.4125 47.775 24.1125L47.375 23.75L43.3375 23.7625C41.125 23.7625 39.1875 23.8125 39.05 23.875Z" fill="#31A0EB"/>
<path d="M39.05 31.125C38.65 31.2875 38.25 31.8625 38.25 32.2625C38.25 32.4875 38.3875 32.775 38.6125 33.025L38.975 33.4375L43.175 33.475L47.3625 33.5125L47.775 33.1375C48.1125 32.8375 48.1875 32.6875 48.1875 32.25C48.1875 31.8125 48.1125 31.6625 47.775 31.3625L47.375 31L43.3375 31.0125C41.125 31.0125 39.1875 31.0625 39.05 31.125Z" fill="#31A0EB"/>
<path d="M8.3124 31.3625C7.5124 31.7 7.2999 32.7375 7.9124 33.3375L8.2499 33.6875L12.6249 33.725L16.9874 33.7625L17.3999 33.3875C17.7374 33.0875 17.8124 32.9375 17.8124 32.5C17.8124 32.0625 17.7374 31.9125 17.3999 31.6125L16.9999 31.25L12.7749 31.2625C10.4624 31.2625 8.4499 31.3125 8.3124 31.3625Z" fill="#31A0EB"/>
<path d="M23.675 31.375C23.275 31.5375 22.875 32.1125 22.875 32.5125C22.875 32.7375 23.0125 33.025 23.2375 33.275L23.6 33.6875L27.9875 33.725L32.3625 33.7625L32.775 33.3875C33.1125 33.0875 33.1875 32.9375 33.1875 32.5C33.1875 32.0625 33.1125 31.9125 32.775 31.6125L32.375 31.25L28.15 31.2625C25.8375 31.2625 23.8125 31.3125 23.675 31.375Z" fill="#31A0EB"/>
<path d="M8.3124 38.8625C7.5124 39.2 7.2999 40.2375 7.9124 40.8375L8.2499 41.1875L12.6249 41.225L16.9874 41.2625L17.3999 40.8875C17.7374 40.5875 17.8124 40.4375 17.8124 40C17.8124 39.5625 17.7374 39.4125 17.3999 39.1125L16.9999 38.75L12.7749 38.7625C10.4624 38.7625 8.4499 38.8125 8.3124 38.8625Z" fill="#31A0EB"/>
<path d="M23.675 38.875C23.275 39.0375 22.875 39.6125 22.875 40.0125C22.875 40.2375 23.0125 40.525 23.2375 40.775L23.6 41.1875L27.9875 41.225L32.3625 41.2625L32.775 40.8875C33.1125 40.5875 33.1875 40.4375 33.1875 40C33.1875 39.5625 33.1125 39.4125 32.775 39.1125L32.375 38.75L28.15 38.7625C25.8375 38.7625 23.8125 38.8125 23.675 38.875Z" fill="#31A0EB"/>
<path d="M23.675 46.125C23.275 46.2875 22.875 46.8625 22.875 47.2625C22.875 47.4875 23.0125 47.775 23.2375 48.025L23.6 48.4375L27.9875 48.475L32.3625 48.5125L32.775 48.1375C33.1125 47.8375 33.1875 47.6875 33.1875 47.25C33.1875 46.8125 33.1125 46.6625 32.775 46.3625L32.375 46L28.15 46.0125C25.8375 46.0125 23.8125 46.0625 23.675 46.125Z" fill="#31A0EB"/>
<path d="M8.3124 46.3625C7.5124 46.7 7.2999 47.7375 7.9124 48.3375L8.2499 48.6875L13.8749 48.725L19.4874 48.7625L19.8999 48.3875C20.2374 48.0875 20.3124 47.9375 20.3124 47.5C20.3124 47.0625 20.2374 46.9125 19.8999 46.6125L19.4999 46.25L14.0249 46.2625C11.0249 46.2625 8.4499 46.3125 8.3124 46.3625Z" fill="#31A0EB"/>
<path d="M48.55 40.875C48.4 40.925 48.1625 41.1375 48.0125 41.325C47.7625 41.65 47.75 41.7625 47.75 45.7625V49.875L48.1125 50.275L48.475 50.6875L52.675 50.725L56.8625 50.7625L57.275 50.3875C57.6125 50.0875 57.6875 49.9375 57.6875 49.5C57.6875 49.0625 57.6125 48.9125 57.275 48.6125L56.875 48.25H53.5625H50.2625L50.225 44.8625L50.1875 41.475L49.775 41.1125C49.3625 40.75 49.025 40.675 48.55 40.875Z" fill="#31A0EB"/>
</g>
<defs>
<clipPath id="clip0_424_127">
<rect width="64" height="64" fill="white" transform="translate(0 0.5)"/>
</clipPath>
</defs>
</svg>
