<svg width="20" height="20" viewBox="0 0 20 20" fill="none" xmlns="http://www.w3.org/2000/svg">
<path fill-rule="evenodd" clip-rule="evenodd" d="M6.221 0.888252C7.1985 0.843252 7.51016 0.833252 10.0002 0.833252C12.4902 0.833252 12.8018 0.844085 13.7785 0.888252C14.7552 0.932419 15.4218 1.08825 16.0052 1.31409C16.616 1.54492 17.1702 1.90575 17.6285 2.37242C18.0952 2.82992 18.4552 3.38325 18.6852 3.99492C18.9118 4.57825 19.0668 5.24492 19.1118 6.21992C19.1568 7.19908 19.1668 7.51075 19.1668 9.99992C19.1668 12.4899 19.156 12.8016 19.1118 13.7791C19.0677 14.7541 18.9118 15.4208 18.6852 16.0041C18.4552 16.6158 18.0946 17.1701 17.6285 17.6283C17.1702 18.0949 16.616 18.4549 16.0052 18.6849C15.4218 18.9116 14.7552 19.0666 13.7802 19.1116C12.8018 19.1566 12.4902 19.1666 10.0002 19.1666C7.51016 19.1666 7.1985 19.1558 6.221 19.1116C5.246 19.0674 4.57933 18.9116 3.996 18.6849C3.38426 18.4549 2.83001 18.0943 2.37183 17.6283C1.90548 17.1705 1.54459 16.6165 1.31433 16.0049C1.0885 15.4216 0.933496 14.7549 0.888496 13.7799C0.843496 12.8008 0.833496 12.4891 0.833496 9.99992C0.833496 7.50992 0.844329 7.19825 0.888496 6.22158C0.932663 5.24492 1.0885 4.57825 1.31433 3.99492C1.54493 3.38332 1.90609 2.82935 2.37266 2.37159C2.8302 1.90534 3.38389 1.54445 3.99516 1.31409C4.5785 1.08825 5.24516 0.933252 6.22016 0.888252H6.221ZM13.7043 2.53825C12.7377 2.49409 12.4477 2.48492 10.0002 2.48492C7.55266 2.48492 7.26266 2.49409 6.296 2.53825C5.40183 2.57909 4.91683 2.72825 4.5935 2.85408C4.166 3.02075 3.86016 3.21825 3.53933 3.53909C3.2352 3.83496 3.00115 4.19515 2.85433 4.59325C2.7285 4.91658 2.57933 5.40158 2.5385 6.29575C2.49433 7.26242 2.48516 7.55242 2.48516 9.99992C2.48516 12.4474 2.49433 12.7374 2.5385 13.7041C2.57933 14.5983 2.7285 15.0833 2.85433 15.4066C3.001 15.8041 3.23516 16.1649 3.53933 16.4608C3.83516 16.7649 4.196 16.9991 4.5935 17.1458C4.91683 17.2716 5.40183 17.4208 6.296 17.4616C7.26266 17.5058 7.55183 17.5149 10.0002 17.5149C12.4485 17.5149 12.7377 17.5058 13.7043 17.4616C14.5985 17.4208 15.0835 17.2716 15.4068 17.1458C15.8343 16.9791 16.1402 16.7816 16.461 16.4608C16.7652 16.1649 16.9993 15.8041 17.146 15.4066C17.2718 15.0833 17.421 14.5983 17.4618 13.7041C17.506 12.7374 17.5152 12.4474 17.5152 9.99992C17.5152 7.55242 17.506 7.26242 17.4618 6.29575C17.421 5.40158 17.2718 4.91658 17.146 4.59325C16.9793 4.16575 16.7818 3.85992 16.461 3.53909C16.1651 3.23498 15.8049 3.00093 15.4068 2.85408C15.0835 2.72825 14.5985 2.57909 13.7043 2.53825ZM8.82933 12.8258C9.48321 13.0979 10.2113 13.1347 10.8893 12.9297C11.5672 12.7247 12.153 12.2907 12.5465 11.7018C12.94 11.1129 13.1169 10.4056 13.0469 9.70084C12.9769 8.99603 12.6643 8.3374 12.1627 7.83742C11.8429 7.51782 11.4562 7.27309 11.0304 7.12087C10.6047 6.96865 10.1505 6.91272 9.70057 6.9571C9.25063 7.00148 8.81612 7.14507 8.42833 7.37753C8.04054 7.60999 7.70912 7.92554 7.45791 8.30146C7.20671 8.67738 7.04199 9.10433 6.97559 9.55155C6.9092 9.99878 6.94279 10.4552 7.07395 10.8878C7.2051 11.3205 7.43056 11.7188 7.7341 12.0539C8.03763 12.3889 8.41168 12.6526 8.82933 12.8258ZM6.6685 6.66825C7.10602 6.23073 7.62543 5.88367 8.19708 5.64689C8.76873 5.4101 9.38141 5.28823 10.0002 5.28823C10.6189 5.28823 11.2316 5.4101 11.8032 5.64689C12.3749 5.88367 12.8943 6.23073 13.3318 6.66825C13.7693 7.10577 14.1164 7.62518 14.3532 8.19683C14.59 8.76848 14.7119 9.38117 14.7119 9.99992C14.7119 10.6187 14.59 11.2314 14.3532 11.803C14.1164 12.3747 13.7693 12.8941 13.3318 13.3316C12.4482 14.2152 11.2498 14.7116 10.0002 14.7116C8.75054 14.7116 7.55211 14.2152 6.6685 13.3316C5.78488 12.448 5.28847 11.2495 5.28847 9.99992C5.28847 8.7503 5.78488 7.55186 6.6685 6.66825ZM15.7568 5.98992C15.8652 5.88764 15.952 5.76465 16.0121 5.62823C16.0721 5.49181 16.1042 5.34473 16.1063 5.19569C16.1085 5.04666 16.0808 4.89871 16.0247 4.76059C15.9687 4.62248 15.8855 4.49701 15.7801 4.39162C15.6747 4.28622 15.5493 4.20305 15.4112 4.14702C15.273 4.09098 15.1251 4.06323 14.9761 4.0654C14.827 4.06758 14.6799 4.09963 14.5435 4.15967C14.4071 4.2197 14.2841 4.3065 14.1818 4.41492C13.9829 4.62578 13.874 4.90585 13.8782 5.19569C13.8825 5.48553 13.9995 5.76232 14.2045 5.96729C14.4094 6.17226 14.6862 6.28928 14.9761 6.2935C15.2659 6.29773 15.546 6.18883 15.7568 5.98992Z" fill="white"/>
</svg>
