<svg width="21" height="21" viewBox="0 0 21 21" fill="none" xmlns="http://www.w3.org/2000/svg">
<path d="M4.75253 6.59747C5.75953 6.59747 6.57587 5.78114 6.57587 4.77414C6.57587 3.76714 5.75953 2.95081 4.75253 2.95081C3.74553 2.95081 2.9292 3.76714 2.9292 4.77414C2.9292 5.78114 3.74553 6.59747 4.75253 6.59747Z" fill="white"/>
<path d="M8.29753 7.97913V18.095H11.4384V13.0925C11.4384 11.7725 11.6867 10.4941 13.3234 10.4941C14.9375 10.4941 14.9575 12.0033 14.9575 13.1758V18.0958H18.1V12.5483C18.1 9.82329 17.5134 7.72913 14.3284 7.72913C12.7992 7.72913 11.7742 8.56829 11.355 9.36246H11.3125V7.97913H8.29753ZM3.1792 7.97913H6.32503V18.095H3.1792V7.97913Z" fill="white"/>
</svg>
