<svg width="68" height="65" viewBox="0 0 68 65" fill="none" xmlns="http://www.w3.org/2000/svg">
<g clip-path="url(#clip0_441_169)">
<path d="M7.44525 1.35156C6.72267 1.71285 6.28396 2.16446 5.83235 3.00317L5.54848 3.53221L5.50977 24.7322L5.50969 50H6C6.42581 50.4258 6.58717 49.4258 7.00007 49L7.54848 48.5V29.5322V13.1451H36.3227H65.0969V32.5258C65.0969 43.6483 65.0452 52.1387 64.9678 52.4225C64.9033 52.7064 64.7098 53.0806 64.5162 53.2612L64.1936 53.5967L43.2904 53.6612C20.0904 53.7387 18.6549 53.558 18.5001 54.4999C18.4485 54.887 14.3323 55.6194 18.5001 55.3774L17.5001 55.6613L43.5743 55.7L64.6452 55.6612L65.1614 55.3774C65.8452 55.0161 66.4388 54.3709 66.7614 53.6612C67.0194 53.0806 67.0323 52.9387 67.0323 28.4483C67.0323 9.94511 66.9936 3.69995 66.8775 3.31285C66.6711 2.60317 65.8065 1.68705 65.0323 1.32576L64.3872 1.01608H36.2452H8.11622L7.44525 1.35156ZM64.4517 3.42898C64.6969 3.64834 64.9033 3.99672 64.9678 4.3064C65.0323 4.59027 65.0969 6.22898 65.0969 7.94511V11.0806H36.3227H7.54848V7.64833C7.54848 5.42898 7.60009 4.12576 7.69041 3.94511C7.76783 3.79027 7.98719 3.53221 8.16783 3.37737L8.51622 3.08059H36.284H64.0646L64.4517 3.42898Z" fill="#31A0EB"/>
<path d="M50.1551 6.34511C49.8067 6.71931 49.7938 7.33866 50.1164 7.73866C50.2971 7.97092 50.4906 8.04834 50.9035 8.04834C51.3164 8.04834 51.51 7.97092 51.6906 7.73866C52.0132 7.35157 52.0003 6.80963 51.6648 6.38382C51.3164 5.93221 50.5551 5.91931 50.1551 6.34511Z" fill="#31A0EB"/>
<path d="M54.4128 6.30645C54.2192 6.5 54.1289 6.73226 54.1289 7.08065C54.1289 8.19033 55.6386 8.5 56.0644 7.46774C56.4902 6.44839 55.2257 5.55807 54.4128 6.30645Z" fill="#31A0EB"/>
<path d="M58.6448 6.30659C58.0384 6.91304 58.5029 8.11304 59.3545 8.11304C59.7287 8.11304 60.2964 7.62271 60.3351 7.27433C60.3996 6.47433 60.0512 6.04852 59.3545 6.04852C59.0706 6.04852 58.7996 6.15175 58.6448 6.30659Z" fill="#31A0EB"/>
<path d="M6.44053 56.855C6.27858 57.4001 6.80326 58.1163 7.41337 58.1814C7.74316 58.2166 7.83892 58.1208 16.3536 49.6062L24.9713 40.9884L24.8814 40.6039C24.7683 40.0783 24.4616 39.8011 23.9378 39.7044L23.5055 39.6257L15.0242 48.0706C8.01601 55.0423 6.53167 56.5631 6.44053 56.855Z" fill="#31A0EB"/>
<path d="M31.4838 19.2226C30.2709 19.3903 28.2967 20.0871 27.1612 20.7452C24.9934 21.9968 23.2515 23.8419 22.1934 25.9839C21.4709 27.4419 21.1483 28.6549 20.9031 30.6936C20.6321 32.9387 20.2321 34.1645 19.1999 35.8549C18.7096 36.6549 17.187 38.2549 10.387 45.0807L2.16762 53.3387L1.61278 54.4742C1.07085 55.5452 1.04504 55.6742 0.993428 57.0032C0.903106 59.2097 1.48375 60.7452 2.95472 62.1516C4.27085 63.429 5.6773 63.9839 7.54827 63.9839C8.74827 63.9839 9.6515 63.7774 10.7096 63.2484C11.1999 63.0032 13.2902 61.0032 19.5483 54.771C27.7031 46.642 28.3999 46.0097 30.0902 45.1581C31.1483 44.629 32.5676 44.242 34.2063 44.0484C36.0515 43.829 36.8773 43.6226 38.1289 43.1194C39.7418 42.4613 40.8257 41.7258 42.1676 40.3968C43.7934 38.7968 44.9418 36.771 45.5096 34.4742C45.8322 33.1452 45.8967 30.4613 45.6257 29.2484C45.3547 28.0097 44.6709 27.2484 43.7031 27.1194C42.4773 26.9516 42.4644 26.9645 38.9031 30.4871C35.9225 33.4549 35.5483 33.7774 34.916 33.9839C32.3096 34.8355 29.8709 32.0613 31.1096 29.6355C31.2257 29.4032 32.7612 27.7516 34.516 25.9839C37.9999 22.4742 37.9999 22.4742 37.8192 21.2097C37.716 20.5387 37.2644 19.9452 36.5934 19.6097C35.716 19.1581 33.2515 18.9774 31.4838 19.2226ZM34.7741 21.2871C35.2386 21.3516 35.6644 21.4678 35.7418 21.5452C35.8192 21.6226 34.7096 22.8226 32.7354 24.7968C29.9741 27.5839 29.5741 28.0226 29.1999 28.8226C28.7999 29.6613 28.7741 29.829 28.7741 31.029C28.7741 32.2549 28.7999 32.3581 29.2515 33.3C29.8321 34.4613 30.5805 35.2097 31.7418 35.7387C33.2386 36.4484 35.1096 36.3581 36.5805 35.5065C36.9031 35.3258 38.5418 33.8032 40.2192 32.1387C42.1934 30.1774 43.3289 29.1323 43.4063 29.2097C43.6386 29.4419 43.8451 31.2484 43.7547 32.2419C43.6257 33.7645 43.3418 34.7839 42.6322 36.2161C42.1289 37.2355 41.7547 37.7774 40.9934 38.5774C39.0063 40.6936 37.0967 41.6097 33.9354 41.9839C32.0515 42.2161 30.787 42.5516 29.3934 43.2097C27.2257 44.229 26.7741 44.629 18.1289 53.2226C10.3999 60.9129 9.89666 61.3903 9.18698 61.6484C8.18053 62.0097 6.90311 62.0097 5.90956 61.6355C4.8644 61.2484 3.70311 60.0742 3.30311 59.0161C3.07085 58.3968 3.01924 58.0484 3.05795 57.2097C3.14827 55.2355 2.77407 55.6742 12.0515 46.371C18.8386 39.5581 20.387 37.9452 20.8773 37.1452C22.1418 35.0807 22.658 33.5323 22.9676 30.9258C23.0709 30.0097 23.2773 28.9129 23.4192 28.4871C24.7096 24.6549 27.858 21.9452 31.7805 21.2742C32.6709 21.1323 33.8192 21.1323 34.7741 21.2871Z" fill="#31A0EB"/>
<path d="M48.1287 22.5C47.9223 22.6936 47.8062 22.9645 47.8062 23.2097C47.8062 23.4548 47.9223 23.7258 48.1287 23.9194L48.4384 24.2419H55.0061H61.5739L61.8448 23.9452C62.2577 23.5065 62.2319 22.7968 61.7932 22.4484C61.4577 22.1774 61.3287 22.1774 54.9416 22.1774H48.4384L48.1287 22.5Z" fill="#31A0EB"/>
<path d="M48.0773 27.5451C47.5741 28.1774 47.8451 29.029 48.6064 29.2096C48.7741 29.2483 51.7677 29.2612 55.2644 29.2483L61.6386 29.2096L61.8838 28.8999C62.2064 28.4999 62.2064 27.8032 61.8709 27.4677C61.6257 27.2225 61.4451 27.2096 54.9806 27.2096H48.3354L48.0773 27.5451Z" fill="#31A0EB"/>
<path d="M48.1287 32.4356C47.9223 32.6291 47.8062 32.9001 47.8062 33.1452C47.8062 33.3904 47.9223 33.6614 48.1287 33.8549L48.4384 34.1775H51.961C54.8642 34.1775 55.5352 34.1388 55.7674 33.9839C56.3352 33.5839 56.2449 32.5517 55.5997 32.2549C55.3803 32.1646 54.1287 32.113 51.8578 32.113H48.4384L48.1287 32.4356Z" fill="#31A0EB"/>
</g>
<defs>
<clipPath id="clip0_441_169">
<rect width="66.0645" height="64" fill="white" transform="translate(0.967773 0.5)"/>
</clipPath>
</defs>
</svg>
