<svg width="80" height="65" viewBox="0 0 80 65" fill="none" xmlns="http://www.w3.org/2000/svg">
<g clip-path="url(#clip0_432_123)">
<path d="M28.751 0.761288C28.4408 1.16945 28.4081 1.41435 28.4081 4.10823C28.4081 5.6919 28.4571 7.12864 28.5061 7.27557C28.6857 7.73272 29.4857 8.01027 30.6938 8.01027H31.8367V17.2348V26.4592L31.2326 26.8348C30.8897 27.047 30.3673 27.3572 30.0734 27.5205L29.551 27.8307L28.2612 26.4429C25.8285 23.8307 23.9673 22.5572 21.8938 22.1164C20.3591 21.7899 9.20811 21.7899 7.65709 22.1164C4.32648 22.8348 1.58362 25.4797 0.734644 28.8266C0.538726 29.6266 0.489746 31.145 0.489746 37.4797V45.1531L0.881583 45.9695C1.61628 47.5531 3.15097 48.4511 4.84893 48.2878C5.37138 48.2388 5.95913 48.1572 6.15505 48.0919L6.51424 47.9776L6.56322 54.7205C6.6122 62.247 6.59587 62.0348 7.77138 63.2592C8.60403 64.1082 9.53464 64.5327 10.7918 64.6307C11.7224 64.696 12.0163 64.647 12.8326 64.2715C13.3714 64.0266 13.9591 63.6837 14.1387 63.5041L14.4979 63.1776L15.2163 63.7327C16.1469 64.4348 17.2081 64.7286 18.4163 64.6144C20.0653 64.4674 21.502 63.4388 22.1877 61.8878C22.5142 61.1695 22.5306 60.8756 22.5306 47.3899C22.5306 39.8307 22.5795 33.6429 22.6448 33.6429C22.7102 33.6429 23.2816 34.1817 23.9183 34.8184C24.555 35.4715 25.4204 36.1735 25.8285 36.3694C27.4448 37.1694 29.2244 37.1695 30.8408 36.3531C31.2979 36.1246 31.7061 35.9286 31.7551 35.9286C31.804 35.9286 31.8367 37.1368 31.8367 38.6062C31.8367 41.2021 31.853 41.3001 32.1959 41.545C32.5061 41.7735 33.3877 41.8062 38.4816 41.8062C41.7469 41.8062 44.4081 41.8715 44.4081 41.9531C44.4081 42.0184 42.7755 45.4797 40.7999 49.6429C36.8653 57.8388 36.8979 57.7735 37.9265 58.2633C38.8571 58.7041 39.0693 58.4266 41.1428 54.1001L43.0204 50.149L53.9755 50.1327H64.9142L66.8571 54.1164C68.5224 57.5613 68.8489 58.1327 69.2571 58.3123C69.6653 58.4756 69.7959 58.4592 70.1714 58.1817C70.4489 57.9858 70.6285 57.6756 70.6612 57.3817C70.6938 57.0388 69.6816 54.8021 67.102 49.4143C65.1265 45.3001 63.5102 41.9041 63.5102 41.8715C63.5102 41.8388 66.2204 41.8062 69.5346 41.8062H75.5755L75.902 41.3817C76.2448 40.9409 76.2448 40.8919 76.2448 24.4837V8.01027H77.453C78.4163 8.01027 78.7265 7.94496 79.0857 7.66741L79.5101 7.34088V4.1572C79.5101 1.2021 79.4938 0.97353 79.1836 0.663326C78.8734 0.353119 78.6448 0.3368 74.1224 0.3368C69.6 0.3368 29.3877 0.0265961 29.0775 0.3368C28.604 0.810268 68.6367 1.87149 69.1591 2.27966C69.5673 2.60619 69.7959 2.62251 73.404 2.62251H77.2244V4.0919V5.56129H53.9591H30.6938V4.0919V2.62251H35.2489C39.5918 2.62251 72.9795 2.94904 73.404 2.62251C73.9265 2.21435 69.1591 1.5 40.3265 0.663326C40.0163 0.353119 39.7877 0.3368 34.5469 0.3368H29.0775L28.751 0.761288ZM73.9591 23.7654V39.5205H53.9591H33.9591V37.1041C33.9591 35.7817 34.0244 34.6225 34.0897 34.5409C34.1551 34.4429 35.4775 33.6103 37.0448 32.6797C38.6122 31.749 40.1632 30.7368 40.4897 30.4429C42.9061 28.2715 41.6979 24.2062 38.4816 23.6021C37.502 23.4225 36.5224 23.6511 35.3795 24.3368C34.7918 24.696 34.2204 24.9899 34.1387 24.9899C34.0081 24.9899 33.9591 22.345 33.9591 16.5001V8.01027H53.9591H73.9591V23.7654ZM22.7102 24.7613C23.902 25.3327 26.3346 27.5205 27.7714 29.349C28.2448 29.9205 28.7836 30.4266 28.9959 30.4756C29.3224 30.5572 30.1877 30.1001 33.3877 28.1735C37.2244 25.8552 37.404 25.7735 38.0734 25.8552C39.0204 25.9858 39.5102 26.5572 39.5102 27.5368C39.5102 28.0756 39.4122 28.3695 39.1346 28.647C38.5632 29.2184 29.7469 34.4429 29.0122 34.6388C28.5387 34.7694 28.1469 34.7531 27.5265 34.6062C26.7755 34.4266 26.4816 34.198 24.3102 32.0592C22.3183 30.1001 21.8612 29.7246 21.4367 29.7246C20.3591 29.7246 20.4244 28.7123 20.3755 45.496C20.3265 59.7327 20.3102 60.696 20.0326 61.2021C19.5755 62.0348 18.8571 62.4103 17.8285 62.3286C17.2081 62.2797 16.8653 62.1654 16.5551 61.8715C15.6734 61.0388 15.6734 61.1041 15.6734 54.0348C15.6734 47.5041 15.6734 47.4552 15.3142 47.0797C14.8734 46.6062 14.253 46.6062 13.7632 47.0633L13.3877 47.4062V53.9205C13.3877 60.9409 13.3714 61.0878 12.5224 61.8715C11.9673 62.3776 10.7102 62.5246 9.99179 62.149C9.71424 62.0021 9.3224 61.6592 9.11015 61.3654L8.73464 60.8266L8.78362 45.9205C8.8326 35.3735 8.78362 30.8674 8.65301 30.4756C8.32648 29.4797 7.06934 29.3164 6.6122 30.2307C6.39995 30.6062 6.3673 31.8633 6.3673 37.7082C6.3673 45.2511 6.35097 45.398 5.53464 45.8225C4.71832 46.2307 3.95097 46.1164 3.33056 45.496L2.75913 44.9246L2.80811 37.0388L2.85709 29.1531L3.29791 28.2062C3.85301 27.047 5.28975 25.5123 6.31832 24.9899C7.86934 24.2062 8.16322 24.1899 15.102 24.2225L21.6326 24.2552L22.7102 24.7613ZM61.6816 43.3572C62.0897 44.1572 62.7265 45.5123 63.1183 46.3286L63.8204 47.847H54.0408C48.653 47.847 44.2448 47.8143 44.2448 47.7654C44.2448 47.6837 44.751 46.6062 46.2693 43.3899L47.0204 41.8062L53.9918 41.8388L60.9632 41.8878L61.6816 43.3572Z" fill="#31A0EB"/>
<path d="M55.3797 13.4797C54.4491 13.8879 54.5471 14.8675 55.6573 15.9124L56.1634 16.3859L55.4287 17.1695C54.6124 18.0348 54.5144 18.5246 55.0205 19.0797C55.5593 19.6512 56.2124 19.5532 57.0614 18.7695L57.7961 18.1001L58.5471 18.7695C59.4124 19.5206 60.0491 19.6348 60.5716 19.1124C61.094 18.5899 60.9797 18.0348 60.1797 17.1859L59.4614 16.4185L60.1797 15.6512C60.9471 14.8348 61.0614 14.3614 60.6369 13.7573C60.1961 13.1369 59.3308 13.2675 58.4981 14.0838L57.7961 14.7695L57.1103 14.1001C56.245 13.2838 56.0328 13.2185 55.3797 13.4797Z" fill="#31A0EB"/>
<path d="M45.0122 16.8592C44.6693 17.1205 42.2856 22.2796 42.2856 22.7858C42.2856 23.1939 42.9224 23.847 43.3305 23.847C43.9183 23.847 44.2938 23.4552 44.8489 22.247L45.4203 20.9898L45.8612 21.9694C48.1632 26.9817 53.0285 31.5368 58.9224 34.2143C60.3754 34.8674 60.5224 34.8837 61.0285 34.5245C61.3387 34.3123 61.3877 34.1327 61.355 33.5939C61.3061 32.9082 61.2897 32.9082 59.9346 32.2062C59.1673 31.8307 58.0081 31.2102 57.355 30.8511C53.453 28.696 49.6816 24.7939 47.9836 21.1858C47.7061 20.5654 47.4938 20.0429 47.5265 20.0103C47.5591 19.9939 48.2122 20.2388 48.9795 20.598C49.7469 20.9409 50.4979 21.2347 50.6612 21.2347C51.5101 21.2347 51.951 19.6837 51.2163 19.2103C50.5632 18.7694 45.8775 16.6633 45.5836 16.6633C45.4203 16.6633 45.1591 16.7613 45.0122 16.8592Z" fill="#31A0EB"/>
<path d="M63.4612 21.8879C62.7755 22.4267 62.8735 23.0471 63.7551 23.994L64.4735 24.7614L63.7551 25.4798C62.9225 26.2961 62.8082 26.9002 63.3469 27.4389C63.8857 27.9777 64.4898 27.8634 65.3061 27.0308L66.0245 26.3124L66.7918 27.0308C67.7388 27.9124 68.3592 28.0104 68.898 27.3247C69.3551 26.7369 69.2245 26.2308 68.3592 25.3491L67.6898 24.6634L68.3592 23.9614C69.1429 23.1451 69.2735 22.8349 69.0449 22.3124C68.8816 21.9532 68.2776 21.5614 67.9021 21.5614C67.8204 21.5614 67.3796 21.9042 66.9225 22.3287L66.1061 23.0798L65.4204 22.4104C64.5551 21.5614 64.049 21.4308 63.4612 21.8879Z" fill="#31A0EB"/>
<path d="M12.7021 7.37769C7.18373 9.25524 5.64903 16.243 9.86128 20.1777C11.445 21.6634 13.0613 22.3328 15.1021 22.3491C17.1756 22.3491 19.1021 21.5491 20.5715 20.0634C24.6368 15.9654 23.0041 9.18994 17.5021 7.34504C16.098 6.87157 14.1552 6.8879 12.7021 7.37769ZM17.5184 9.76136C18.498 10.2348 19.5592 11.3287 20.0654 12.3899C20.6368 13.5981 20.6694 15.6552 20.1307 16.8308C19.6572 17.8593 18.547 19.0185 17.5511 19.541C16.3756 20.145 14.4817 20.2267 13.1919 19.7369C10.3184 18.6593 8.91434 15.2471 10.1878 12.4389C10.6939 11.3287 11.6409 10.3328 12.7184 9.79402C14.0572 9.1083 16.1307 9.09198 17.5184 9.76136Z" fill="#31A0EB"/>
</g>
<defs>
<clipPath id="clip0_432_123">
<rect width="78.3673" height="64" fill="white" transform="translate(0.816406 0.5)"/>
</clipPath>
</defs>
</svg>
